<svg id="Capa_1" data-name="Capa 1" xmlns="http://www.w3.org/2000/svg" viewBox="0 0 800 280.36"><defs><style>.cls-1{fill:#fff;}</style></defs><path class="cls-1" d="M66.43,159.93c-1.29-.58-1.94-1.36-1.94-2.37a4.11,4.11,0,0,1,.27-1.39c.18-.5.36-1.08.54-1.72a14,14,0,0,0,.27-3.23c-.08-.57-.69-1.29-1.83-2.15a2.35,2.35,0,0,1-1-1.72,4.92,4.92,0,0,1,.86-2.47l3.87-9.24,1.4-3.12A4.4,4.4,0,0,0,67,132a4.48,4.48,0,0,0-2.25.7,5,5,0,0,1-2.58.7,20.86,20.86,0,0,1,2-3.12,12.12,12.12,0,0,0,2.36-3.87,95.82,95.82,0,0,1-23,2.8q-22.25,0-26.87-10.64l.21-.11.11.11a16.59,16.59,0,0,0,8.71,5,30.15,30.15,0,0,0,6.34.64,36.53,36.53,0,0,0,4.84-.32Q27.09,123.71,22,121t-9.08-9.67l-1-1.83a3.07,3.07,0,0,0-2.26-1v-.21a4.52,4.52,0,0,0,.11-1.4,12.19,12.19,0,0,0,.22-2.47,15.14,15.14,0,0,0-.54-3.87,5.09,5.09,0,0,0-.75,2.58,9.35,9.35,0,0,0,.21,2.09,7.41,7.41,0,0,1,.22,1.78L9.46,109a2.37,2.37,0,0,0,0,.7.74.74,0,0,0,.16.11.65.65,0,0,1,.22.16,5.65,5.65,0,0,1,.43,2.15,8,8,0,0,1-.11,1.29,9.39,9.39,0,0,0-.11,1.5,10.61,10.61,0,0,0,.11,1.13,3.74,3.74,0,0,0,1.08,1.88,7,7,0,0,1-4.09-5.26L7,111.88a69.58,69.58,0,0,1-3.12-20.2A59.79,59.79,0,0,1,5.8,76.52,43.93,43.93,0,0,0,1.07,91c-.07.15-.16.22-.26.22H.22c-.15,0-.22-.83-.22-2.48q0-12,6.5-24.66T26.66,41.37a100.82,100.82,0,0,1,8-7.74,85.93,85.93,0,0,1,15.26-9.78l3.07-1.72a5.67,5.67,0,0,1,2.2-.86,1.46,1.46,0,0,1,1.07.43,2.36,2.36,0,0,0,1-.32,113.37,113.37,0,0,1,27.09-6.55h.43l.21-.11a.16.16,0,0,1,.16.11.65.65,0,0,1,.06.32c0,.07-.07.1-.22.1a83,83,0,0,0-16.23,5.27,30.28,30.28,0,0,0,7.85-1.18A82.14,82.14,0,0,1,88,16.22h.43a44.59,44.59,0,0,1,10-1.18c.78,0,1.54,0,2.25.11h1.72a50.41,50.41,0,0,1,17,2.9c.15.07.22.14.22.21s0,.24-.16.27a1.12,1.12,0,0,1-.38.06,48,48,0,0,0-5.26-.76c1.36.51,2.68,1,4,1.62a29.83,29.83,0,0,0,9.78,2.25l3.12.33a17.84,17.84,0,0,1,7.63,2.15l.32.21,1.08.86a1.24,1.24,0,0,1,.54,1v.11a1.21,1.21,0,0,1-.54,1,9.27,9.27,0,0,0-.86.76,40.85,40.85,0,0,1,7.74,1.29A133,133,0,0,0,160.9,32a137.59,137.59,0,0,1,15.8,3.23h.11l-.11.21a85,85,0,0,1-20.42,2.26l1.94,1.4a39.07,39.07,0,0,1-4,.21,31.29,31.29,0,0,1-9-1.29,27.27,27.27,0,0,0-4.3-1,15.91,15.91,0,0,0-4.62.54l-.43.22,1.83.75a.17.17,0,0,1-.11.16.44.44,0,0,1-.22,0,67.84,67.84,0,0,0-11.28-.86c0,1.15-.4,1.76-1.18,1.83l-1.08.11-1.93-.22a115.77,115.77,0,0,0-13.12-1l-5.16-.22a122.78,122.78,0,0,0-16.66,1l-2,.32c-.57,0-.86,0-.86-.11a.74.74,0,0,0-.11-.32V39c-.07-1.22-1-1.83-2.9-1.83a8,8,0,0,0-1.82.22C77.07,37.68,76,38.22,76,39a1.72,1.72,0,0,0,.38.86,1.28,1.28,0,0,0,1.13.54,6.76,6.76,0,0,0,2.09-.33,7.08,7.08,0,0,1,2.1-.32,8.93,8.93,0,0,1,2.25.11l-1.29.86a23.53,23.53,0,0,1-2.9,1.72l-.43.32a38.19,38.19,0,0,1-9.78,4.35,40.14,40.14,0,0,0-10,4.46,2.09,2.09,0,0,1-.86.11c-.51-.14-.76-.32-.76-.54s.9-1.36,2.69-3l-2.79,1.5Q44.06,57.29,38.16,65.56a47.76,47.76,0,0,0,4.62-3.44,49.05,49.05,0,0,1,7.74-5.32,27.3,27.3,0,0,1,11.28-3L57.61,56.1a44.85,44.85,0,0,0-6.77,3.76Q35.57,71,34.07,85.12q.85-2.69,1.94-5.38a1.12,1.12,0,0,1,1-.42c.58,0,.86.17.86.53a29.47,29.47,0,0,0-.53,5.59,28.77,28.77,0,0,0,2.58,11.82,11.48,11.48,0,0,0,4,4.63,26.08,26.08,0,0,0,5.48,2.68l3.66-.1a33.22,33.22,0,0,0,4.89-1.08,19,19,0,0,1,5.43-.75,23.38,23.38,0,0,1,3.76.32l.65.11c.71,0,1.43-.61,2.14-1.83l.54-.86a12.38,12.38,0,0,0,1.45-3,16.48,16.48,0,0,1,1.24-2.85c.5-.89.89-1.37,1.18-1.45s.32.36.32,1.08A7.77,7.77,0,0,1,74,97.26a7.26,7.26,0,0,0-.59,2.8l.11,1.4q1.29-2.26,2.79-4.41a25.5,25.5,0,0,0,5.16-11.39,5.33,5.33,0,0,0-2.85.91,3.92,3.92,0,0,0-1.12,1.56c-.15.29-.31.59-.49.91a5.74,5.74,0,0,0-.48,1.24,3.53,3.53,0,0,1-1.08,2c-.57.53-1,.8-1.18.8s-.32-.18-.32-.53a6.86,6.86,0,0,1,.43-2.05,14,14,0,0,0,.32-1.82A3.94,3.94,0,0,0,74.38,87a7.45,7.45,0,0,0-2.69-.54,7.82,7.82,0,0,0-3.44,1,17.18,17.18,0,0,1-6.45,1.39,4.55,4.55,0,0,1-3.54-1.72,10,10,0,0,0-4.73-2.79A65.1,65.1,0,0,1,41.6,82.75l-.11-.43h.32a30,30,0,0,0,3.66.22l2.79-.11a11.56,11.56,0,0,1,5.32-4.57,34.19,34.19,0,0,1,7.58-2.31,2.5,2.5,0,0,0-1.67-1.5,17.07,17.07,0,0,0-3.17-.22A3.16,3.16,0,0,1,54,73,25.33,25.33,0,0,1,61.43,71,24.65,24.65,0,0,0,69,69a17.67,17.67,0,0,1,6.78-1.72l3.65-.11,3.65.11q2.48.1,7.31.1a69.76,69.76,0,0,0,7.53-.32,21.27,21.27,0,0,1,4.94-.64c.5,0,1.31,0,2.42.16s2.1,1.09,3,3l.53.43c2.15.86,3.23,1.47,3.23,1.83s-.36.9-1.08,1.61a18.84,18.84,0,0,0-3.54,8q-.54,2.25-2.15,7.2l-.33,1.07A55.89,55.89,0,0,1,109.42,85c.36,0,.54,0,.54.11l-.11.11q-5.8,13.32-10.21,27-.75,2.16-1.35,4.47c-.39,1.54-.84,3.1-1.34,4.67a15.35,15.35,0,0,1-1.29,6q-1.29,3.06-2.79,5.85l-1.19,2.26a39.63,39.63,0,0,1-12.14,14.94.72.72,0,0,1-.54.22q-.75,0-.75-.54l.64-2.37a9.7,9.7,0,0,0-2.25-.32q-2.91,0-4,3.33a6.2,6.2,0,0,1-1,1.94ZM181.54,30.84h-.11a.25.25,0,0,1-.16-.05.07.07,0,0,1,0-.11.21.21,0,0,1,.16-.05c.07,0,.11,0,.11.05Z" transform="translate(0 -1.39)"/><path class="cls-1" d="M107.81,147.67a31,31,0,0,1,.43-19,9.23,9.23,0,0,0,.21-2.15,19.39,19.39,0,0,1-3,3.55h-.21a1.55,1.55,0,0,1-.65-.11,5.23,5.23,0,0,1-2.15-4c0-1.79.86-3.79,2.58-6a39.75,39.75,0,0,0,2.58-3.65,59.62,59.62,0,0,1,4-13.27q2.79-6.51,6.12-12.85,4.95-9.45,14.41-31.71,2.68-6.33,5.48-12.57a14.62,14.62,0,0,1,5.16-6.77,7.16,7.16,0,0,1-.81,3.44,27,27,0,0,1-1.88,3,13.59,13.59,0,0,0-1.18,1.61,14.26,14.26,0,0,0,2.26.21,8,8,0,0,0,2.31-.37,2.56,2.56,0,0,0,1.66-1.24A11.46,11.46,0,0,1,149.51,41,49.74,49.74,0,0,1,156,37.61c1.5-.64,2.94-1.32,4.3-2,.79.43,1.22.9,1.29,1.4a8.21,8.21,0,0,1-.11,1.5,9,9,0,0,0-.11,1.61c0,.29.36.61,1.08,1A6.2,6.2,0,0,0,166,38a6.27,6.27,0,0,1,3.87-3c.43.15.68.34.76.59a3,3,0,0,1,.1.81v.75q2.37,4.41,2.37,6a6,6,0,0,1-.48,2.1,24.84,24.84,0,0,1-2.42,4q-4,5.91-7.63,12.36l-.54,1a5,5,0,0,0-1.29,3.11,3.85,3.85,0,0,0,.64,1.94,62.34,62.34,0,0,0,12.15-1.51l4-1.5a55,55,0,0,0,12.14-5.91q9-6.88,10.1-16.34a11.69,11.69,0,0,0-1.82-4,30.5,30.5,0,0,0-6.45-7.41,22.57,22.57,0,0,0-10-4.41,4.34,4.34,0,0,0-1.18-.11v-.11A36.29,36.29,0,0,1,187,27a34,34,0,0,1,16.12,5.16,2.56,2.56,0,0,0,.54-1.5,4.22,4.22,0,0,0-.16-1c-.11-.43-.84-.93-2.2-1.51a50,50,0,0,0-16.13-4.51c-1.43-.14-2.83-.22-4.19-.22a40.63,40.63,0,0,0-5.16.33c-.79.14-1.61.25-2.47.32a32.83,32.83,0,0,0-11.18,2.69,5.34,5.34,0,0,1-2.36.64,7,7,0,0,1-3.39-1.18A7.59,7.59,0,0,0,152.52,25a12.36,12.36,0,0,0-2.15.21,37.33,37.33,0,0,1-5.8.86q-4.51.75-8.6,1.61-7.42,1.62-14.84,3-9.24,1.72-18.27,3.87a.41.41,0,0,1-.21-.05.18.18,0,0,1-.11-.16.1.1,0,0,1,.11-.11q6.76-2.89,14.18-6.56,6.45-3.22,13.33-6.34a7,7,0,0,1,4.36-3.28,41.05,41.05,0,0,1,6.71-1.34l2.15-.32a86.79,86.79,0,0,1,9.25-2.37,22.12,22.12,0,0,0,4.73-1.29,2.3,2.3,0,0,0-2.05-1,3.23,3.23,0,0,0-.75.1A2.49,2.49,0,0,1,154,12q-.16,0-6.39,1.29v-.21l4.29-1.51-.21-.11c0-.35.28-.64.86-.86A9.69,9.69,0,0,1,155,10.2l1.61-.32A98.28,98.28,0,0,1,171.33,6a45.07,45.07,0,0,1,8.17-.75,41.54,41.54,0,0,1,6.66.54,64,64,0,0,1,28.48,7.09,27.55,27.55,0,0,1,9.41,7.26A58.28,58.28,0,0,1,229.91,29a8.79,8.79,0,0,1,1,2.26l.33.86a14.11,14.11,0,0,0,.21-2.47A17.18,17.18,0,0,0,230,23.21c-.94-2.29-3-4.62-6.24-7V16a.34.34,0,0,1,.11-.16H224l.21.11q7.2,4.3,10.21,10.1a5.81,5.81,0,0,1,.32-1.18q2.58,2.47,2.58,4.73a4.63,4.63,0,0,1-.16,1.24,7.17,7.17,0,0,0-.21,1.07,2.41,2.41,0,0,1-.16.7,29,29,0,0,1,.53,5.59q0,10.22-6.55,20.21a24.38,24.38,0,0,1-13.65,10.31h-.54a2.57,2.57,0,0,1-2.15-1,81.49,81.49,0,0,1-17.09,11l-.11.11A60.93,60.93,0,0,0,214.54,73l.21-.1a.78.78,0,0,1,.27,0,.25.25,0,0,1,.16.27l-.11.21a157.13,157.13,0,0,1-25.9,12.69c2.8,2.22,4.44,4.26,5,6.12a9.79,9.79,0,0,1,.32,2.53,8.22,8.22,0,0,0,.21,2.1q.75,1.6,7.31,3.54a4.25,4.25,0,0,1,2.37,1.18q3.87,3.87,7.74,8.17,3.44,3.87,3.43,5.48c0,.79-.75,1.19-2.25,1.19h-.65a11,11,0,0,0,1,3.81,5.79,5.79,0,0,0,3.12,2.15,82.18,82.18,0,0,0,7.9,2.31,160.73,160.73,0,0,1-28.59-4.83q-1.73-.65-7-5.81a34.24,34.24,0,0,0-5.05-4.51l.86,1.18a90.15,90.15,0,0,0,6.88,8,.1.1,0,0,1,.11.11v.11a.33.33,0,0,1-.22.11h-.21l-4.3-2.48A43.1,43.1,0,0,1,176,108.12l-1-1.07a2.41,2.41,0,0,1-1.07-.43A25.6,25.6,0,0,1,170,102.1a4.73,4.73,0,0,1-.75-2.58,7.09,7.09,0,0,0-.22-2,2.13,2.13,0,0,0-1.23-1.13,10.93,10.93,0,0,0-3.28-.7,1.74,1.74,0,0,1-1.35-.7,7.07,7.07,0,0,1-.91-1.34q-2.79-6.12-12.15-6.13a4.51,4.51,0,0,1-1.18-.1h-.21c0-.07,0-.11.05-.11l.43,0c.25,0,1.74-.34,4.46-.92l2.47-.54c-.71-1.72-1.79-2.58-3.22-2.58a6.23,6.23,0,0,0-2.8.86,6.65,6.65,0,0,0-1.93,2.69,1.81,1.81,0,0,1-.27.65,6.19,6.19,0,0,1-.48.53q-9.36,11.19-12,23.65-2.58,9.78-5.59,20.53a3.3,3.3,0,0,1-.64-1.83,5.6,5.6,0,0,1,.48-2,5.77,5.77,0,0,0,.48-2.15c-.07-.64-.61-1.29-1.61-1.93a76.06,76.06,0,0,1-8.28,8.27,95,95,0,0,0-7.41,7.15A24,24,0,0,0,107.81,147.67ZM183.9,78.89a14.78,14.78,0,0,0,6.67-1.35,20.93,20.93,0,0,0,5.37-4q-8.49,3-14.51,5.27Z" transform="translate(0 -1.39)"/><path class="cls-1" d="M231.2,143.16h-.33c-.28,0-.42-.11-.42-.32a58.49,58.49,0,0,0,3.86-15.26l1.19-6.88a2.38,2.38,0,0,0-2.15-1.19,36.58,36.58,0,0,0-5.48.65,2,2,0,0,1-.54-1.29l.11-.65.85-1.72c1.08-1.43,1.62-2.4,1.62-2.9a.84.84,0,0,0-.22-.64q-2-1.72-2-3.33a7.91,7.91,0,0,1,1.72-4.3,7.85,7.85,0,0,0,1.72-4.2,1.9,1.9,0,0,1,1.18-1.77,11.57,11.57,0,0,1,2.58-.91c1.36-.29,2-.61,2-1a.87.87,0,0,0-.32-.54,3.55,3.55,0,0,1-1.4-2.47v-.75a5,5,0,0,1,.65-1.94l.11-.32c1.07,0,1.61.29,1.61.86V93.4c0,.36.28.64.86.86a41,41,0,0,0,4.78-7.85q3-5.8,5.38-11.93a35.28,35.28,0,0,0,2.63-9.14l-1.4,1.72a30.84,30.84,0,0,0-3.12,4.09,5.85,5.85,0,0,0-.75,2.79,5.67,5.67,0,0,0,.27,1.72,2.93,2.93,0,0,0,.54,1.13c.18.18.27.3.27.38s-.45.3-1.35.48a3,3,0,0,0-1.88,1,5.89,5.89,0,0,0-.86,1.56l-.32.85a12.62,12.62,0,0,0-1.07,2.26A15.22,15.22,0,0,1,238,88.77q.1-1.93,3.06-10.21t7-18.7q9.78-25,12-28.16h.11a134.44,134.44,0,0,1,8.49-14.4.5.5,0,0,1,.38-.27,1.91,1.91,0,0,1,.37-.06c.07,0,.16.06.27.17a.49.49,0,0,1,.16.37,88,88,0,0,0-2.15,10.86L271,25.25a20.43,20.43,0,0,0,6.66-8.81,66.43,66.43,0,0,1,5.27-14.3.43.43,0,0,1,.43-.21c.5,0,.75.14.75.43a23.55,23.55,0,0,0-.32,4,22,22,0,0,0,.59,5.11,22.08,22.08,0,0,1,.59,5,19.49,19.49,0,0,1-.65,4.94A17.8,17.8,0,0,1,281,26.65a1.34,1.34,0,0,1,1,.75,24.68,24.68,0,0,1,.86,6.56,48.52,48.52,0,0,1-.54,5.91q-.86,6.24-6,13.65c-.79,3.15-1.5,6.31-2.15,9.46a140,140,0,0,1-5.59,20.85l-1.07,2.69-.54,1.61a43.57,43.57,0,0,1-4.4,11.93q-3.24,6-6.94,11.72t-6.39,10.85c-.08.15-.33.22-.76.22-.28,0-.43-.11-.43-.33a39.63,39.63,0,0,0,.76-5c-.29,0-.47,0-.54-.11v-.21l.64-1.4a.73.73,0,0,0,.17-.27,6.76,6.76,0,0,0,0-1.12q-1.39,2.36-2.58,4.62a107.11,107.11,0,0,1-7.74,12.68,127.3,127.3,0,0,0-7,11.29A.72.72,0,0,1,231.2,143.16Z" transform="translate(0 -1.39)"/><path class="cls-1" d="M276,143.48c-1.08,0-1.63-.34-1.67-1s-.05-1.34-.05-2a62.53,62.53,0,0,1,2.36-16.76l.43-1.83c-.71-.43-1.07-.86-1.07-1.29a3.2,3.2,0,0,1,.64-1.72,3.44,3.44,0,0,0,.43-1,12,12,0,0,0,.76-7,2.31,2.31,0,0,0-1.29-1.72,37,37,0,0,1-3.44,7.74l-.22.1-.32-.1a18.4,18.4,0,0,1-2-8.28,33.33,33.33,0,0,1,1.82-9.89c.58-2.08,1.22-4.19,1.94-6.34q1.18-5.81,3.65-14a30.24,30.24,0,0,1-.86-7.1,32.5,32.5,0,0,1,4.62-16.55l.54-1.08c.65-1.29,1.52-2.84,2.64-4.67a12.6,12.6,0,0,1,3.81-4.14l5.27-16a62.69,62.69,0,0,1,5.8-13.44,4.33,4.33,0,0,0,.54-1,8.77,8.77,0,0,1,1-1.72,3,3,0,0,1,1.83-1,6.4,6.4,0,0,0,2.42-1.13,4.28,4.28,0,0,1,2.58-.86,4.39,4.39,0,0,1,1.93.54c1.08.65,1.61,1.33,1.61,2a5.37,5.37,0,0,1-1.07,2.8,3.64,3.64,0,0,0-.65,1.61c0,.5.54.86,1.61,1.07l1.08.11q2.47,0,3.33-2.79a6.55,6.55,0,0,0,.54-2,6.58,6.58,0,0,1,1.93-4.2c1.51.22,2.42.59,2.74,1.13a3.16,3.16,0,0,1,.49,1.67V12a2.63,2.63,0,0,0,1,2.37h.75a11.36,11.36,0,0,0,2.42-.27,11.72,11.72,0,0,1,2.52-.27,4.35,4.35,0,0,1,2.47.8,4.51,4.51,0,0,1,1.67,1.94,11.17,11.17,0,0,1,.7,2.31l.32,1.29q2.79,10.43,4.52,21a165,165,0,0,0,5.48,24.07A10.63,10.63,0,0,0,347,71.36l7.09-7.09q7.84-8.17,16.34-15.8a40.35,40.35,0,0,0,7.31-8.92A45.19,45.19,0,0,1,382.21,32a59.42,59.42,0,0,1,5.7-8.27l.32.1Q395.54,14.4,409.08,9l.75-.11c.29.08.44.22.44.43a.45.45,0,0,1-.11.33,45.07,45.07,0,0,0-6.88,9.56,21,21,0,0,1,7.63-2,3.33,3.33,0,0,0,1.77-.65,7.13,7.13,0,0,0,1.19-1.12,7.29,7.29,0,0,1,1.07-1.08,8.61,8.61,0,0,0,1.13-1.13,35.41,35.41,0,0,1,4.46-6.5,20.9,20.9,0,0,1,7.36-5.21l.43-.11a.5.5,0,0,1,.43.54,22.4,22.4,0,0,0-3,7.47,68.24,68.24,0,0,0-1.07,7.79,47.49,47.49,0,0,1-1.94,10.86v.21a10.17,10.17,0,0,1,1.19-1.5c0-.07,0-.11.1-.11l.11.11c-1,2-1.9,4-2.69,6A9.39,9.39,0,0,1,423.27,38c0,2.3-.93,5.05-2.79,8.28a55.19,55.19,0,0,0-4,8.38q-1.72,14.08-3.23,21.39A66.32,66.32,0,0,1,408,91.78a3.44,3.44,0,0,1-2.8,1.72,160.57,160.57,0,0,1-7.74,18.7q-3.23,6.78-7,15.81a10.3,10.3,0,0,1-1.94,2.9l-1.18,1.29c-.72-.36-1.07-.72-1.07-1.08a2.8,2.8,0,0,1,.32-1.29,2.92,2.92,0,0,0,.32-1.29c0-.35-.36-.75-1.07-1.18a18.29,18.29,0,0,0-5.27,8.81,24.24,24.24,0,0,1-2.9,6.35c-1.51-.58-2.26-1.29-2.26-2.15l.22-1.19a9.84,9.84,0,0,0,.75-4.3q0-5.48-5.16-12.79a4.34,4.34,0,0,1-.75-2.36,8.62,8.62,0,0,1,1.18-3.87l.11-.22a80.87,80.87,0,0,0,5.37-14.72Q378.78,94,384,84a19.19,19.19,0,0,0,2.9-10.21,21.07,21.07,0,0,0-.21-2.9l-3,3.12a91.18,91.18,0,0,0-6.24,6.88q-4.62,5.58-7.63,8.81-4.52,5.06-8.81,10.64-2.91,3.77-3.66,4.52l-4.94,5.59c-.79,1.21-1.54,1.82-2.26,1.82h-.32a8.79,8.79,0,0,0-2.47-.43,5.45,5.45,0,0,0-4.19,2.37,8.38,8.38,0,0,1-1.78,1.5c-.68.43-1,.9-1,1.4a1.88,1.88,0,0,0-.16.43c0,.14-.45.36-1.24.64-.21.08-.32.15-.32.22h-.11l-.1-.54-.11-1a1.75,1.75,0,0,1,.64-1.08,4.74,4.74,0,0,0,1.29-2.15,46.28,46.28,0,0,0-4.08,2.26,5.41,5.41,0,0,0-.11,1.5c0,.43-.36.65-1.07.65h-.54c-.43.71-1.08,1.68-1.94,2.9h-.43c-1.43-.5-2.15-1.15-2.15-1.94a2.41,2.41,0,0,1,.43-1.12,6.36,6.36,0,0,0,.65-1.35,6.06,6.06,0,0,0,.27-1.13,6,6,0,0,1,.21-1,3.5,3.5,0,0,1,.7-1.18q-3-7.31-5.43-15.32a54.25,54.25,0,0,1-2.41-15.74v-.65q-2.26-9.45-3.66-18.81l-1.61-9.67a12.57,12.57,0,0,1-.65,2.15l-.1.32a2.51,2.51,0,0,1-1.19-.37,1.16,1.16,0,0,1-.32-.92v-.64a1.14,1.14,0,0,0-.86-1.08,28.31,28.31,0,0,0-4.3,7.2,86.41,86.41,0,0,0-3.22,9A25.13,25.13,0,0,1,307.19,72,26,26,0,0,0,304,83l.22-.32a31.26,31.26,0,0,0,3.22-5,12,12,0,0,0,1.29-5.54,2.08,2.08,0,0,1-.27-.37,1.7,1.7,0,0,1-.16-.81c0-.36.36-.64,1.08-.86a3.39,3.39,0,0,0,2.36-2.69,20.4,20.4,0,0,0,1.4-3.22,14.39,14.39,0,0,1,3.44-5.8,84.76,84.76,0,0,1-3,10.8q-2.79,8.76-6.66,19.67t-7.15,19.51q-3.29,8.59-4.36,10.21a2.87,2.87,0,0,1-1.93-.49,3.48,3.48,0,0,1-.86-1.23,2.63,2.63,0,0,0-.43-.76l-2,5.92a22.6,22.6,0,0,1-7.2,11.93,28.3,28.3,0,0,0-3.6,3.87,8,8,0,0,0-1.67,4.62C277.63,143.12,277.09,143.48,276,143.48Zm42.67-92.43-.32-1.83-.22-.64a1.14,1.14,0,0,0-.54.42l-.1.11a.73.73,0,0,0,.21.54A7.26,7.26,0,0,1,318.69,51.05Zm31.17,27.73A53,53,0,0,0,368,57a55.51,55.51,0,0,0-7.14,5.59,58.58,58.58,0,0,0-7.69,8.22q-3.33,4.35-3.33,7.79Z" transform="translate(0 -1.39)"/><path class="cls-1" d="M439.5,128.76l-4.62-.11a11.77,11.77,0,0,1-6.88-2.36l1.93-.11a20.78,20.78,0,0,1,3.44.27,17.88,17.88,0,0,0,2.91.27,10.53,10.53,0,0,0,4.72-1,6,6,0,0,0-2.79-1.61,25.8,25.8,0,0,0-3.33-.65l-2.15-.32-1.18-.22a43.29,43.29,0,0,1-11.93-3.44l-.33-.21c-1.93-.79-2.9-1.51-2.9-2.15l.11-2.15a21.47,21.47,0,0,0-1.88-8.76,21,21,0,0,1-1.88-8.65c0-.86,0-1.69.1-2.47l1.62-7.1,1-4.51a9.3,9.3,0,0,0,.54-2.05l-.11-.64a34.4,34.4,0,0,1-1.39-7.2,9.47,9.47,0,0,1,.16-1.67,14.43,14.43,0,0,1,1-2.85l.11-.21q2.79-7.1,5.26-14.19a2.34,2.34,0,0,0,.33-.75,13.75,13.75,0,0,1,1.5-3.12,55,55,0,0,1,6.72-11q4.14-5.31,8.65-10.26,1.73-1.83,3.33-3.76h.11v.11A46.84,46.84,0,0,0,434.77,42l.22-.54a61,61,0,0,1,8.06-12.31,40.82,40.82,0,0,1,12.57-9.51A40,40,0,0,1,475,14.83a48.39,48.39,0,0,1,7.09.53,45.86,45.86,0,0,0,6.35.43,62.88,62.88,0,0,1,16.66,2,15.6,15.6,0,0,1,9.45,6.88,11.85,11.85,0,0,0,2.91,3.12l.42.32a18.9,18.9,0,0,0-8.38-10.69q-6.45-4.14-18.59-5.11,3.44-.21,6.55-.21,14.29,0,22,6.34,8.38,7,8.38,21.17a72.86,72.86,0,0,1-4.08,23.22q2.25-4.62,5.05-9.24a.44.44,0,0,1,.32-.11.28.28,0,0,1,.32.32,54.84,54.84,0,0,0-3.22,12.74,59.54,59.54,0,0,1-3.6,13.7Q520,87,512.59,91l-.86.11L511,91q-10.44,17.2-14.94,17.2l-1.08-.11a85.57,85.57,0,0,1-11.71,10.1,36.71,36.71,0,0,1-7.21,4.09A103.71,103.71,0,0,1,439.5,128.76Zm-9-12.47a8.88,8.88,0,0,0-3.44-4.51,28.78,28.78,0,0,0-4.94-2.8l-.65-.32a14.58,14.58,0,0,0,3.17,4.94A11.91,11.91,0,0,0,430.47,116.29ZM457.88,113a14.76,14.76,0,0,0,2.42-.22c.89-.14,1.92-.28,3.06-.43a31.76,31.76,0,0,0,6.77-1.29,5.86,5.86,0,0,0,4.09-3.76,25.3,25.3,0,0,1-10,3.76l-2.15.11q-5.16,0-11.82-4.73l-.22-.21a22.24,22.24,0,0,0,9.68,2.58q8.91,0,17.09-10.22A116.35,116.35,0,0,0,486.15,85q5.7-9.67,10.85-14.08h.11a48.63,48.63,0,0,0,3.23-11.5,18.72,18.72,0,0,0,.21-2.79,23.39,23.39,0,0,0-1.83-8.82v-.75a3.57,3.57,0,0,1,.43-.59,5.53,5.53,0,0,0,.76-1.56V44.6a26,26,0,0,0-2.91-6l-.1-.22-1.19-1.82q-8.59-5.16-13.86-5.16a17.09,17.09,0,0,0-3.76.43,29.42,29.42,0,0,0-12.36,6.88,15.18,15.18,0,0,1,.43,2,1.24,1.24,0,0,1-.76,1.07A27.87,27.87,0,0,0,458.74,49a28.3,28.3,0,0,1-6.13,6.93c.07,0,.11,0,.11.06a.34.34,0,0,0,.11.16l-.32-.11.1-.21v-.11a45.57,45.57,0,0,0-6.55,21.07c0,.21-.15.32-.43.32h-.33a.34.34,0,0,1-.32-.22,35.06,35.06,0,0,1-1.4-10.53,106.4,106.4,0,0,0-4,27.19,6.8,6.8,0,0,0,.75,3.44,37.1,37.1,0,0,1,2.36-8.49c.51-1.36,1-2.79,1.4-4.3h.22v.11a36.32,36.32,0,0,0-.22,4,41.81,41.81,0,0,0,2.26,13.54Q450.25,113,457.88,113Zm26.23-14.51a27,27,0,0,0,2.25-2.58A49.76,49.76,0,0,1,492.17,90a1.55,1.55,0,0,0,.64-1.19,3.12,3.12,0,0,1,.11-.64c.07-.29.71-.82,1.94-1.61,1.5-1,2.25-1.83,2.25-2.48a2.43,2.43,0,0,0-.86-1.61,6.44,6.44,0,0,0-1.72,1.45,11.59,11.59,0,0,0-1.13,1.72,5.22,5.22,0,0,0-.59,1.83c-.07.61-.11,1.06-.11,1.34s-.1.43-.32.43l-1.29-.1A78.4,78.4,0,0,1,484.11,98.45ZM513.34,47.5a5.22,5.22,0,0,0,.43-1.93A6.93,6.93,0,0,0,512.48,42Q513.13,45.35,513.34,47.5Z" transform="translate(0 -1.39)"/><path class="cls-1" d="M515.92,147.67a31.16,31.16,0,0,1-1.29-8.81,31.67,31.67,0,0,1,1.72-10.21,8.67,8.67,0,0,0,.22-2.15,19.39,19.39,0,0,1-3,3.55h-.22a1.5,1.5,0,0,1-.64-.11,5.2,5.2,0,0,1-2.15-4c0-1.79.86-3.79,2.58-6a39.75,39.75,0,0,0,2.58-3.65,59.59,59.59,0,0,1,4-13.27q2.8-6.51,6.13-12.85,5-9.45,14.4-31.71,2.68-6.33,5.48-12.57a14.75,14.75,0,0,1,5.16-6.77,7.27,7.27,0,0,1-.8,3.44,30.24,30.24,0,0,1-1.88,3A13.67,13.67,0,0,0,547,47.18a14.36,14.36,0,0,0,2.26.21,7.92,7.92,0,0,0,2.31-.37,2.61,2.61,0,0,0,1.67-1.24,11.5,11.5,0,0,1,4.4-4.78,50.4,50.4,0,0,1,6.45-3.39q2.26-1,4.3-2c.79.43,1.22.9,1.29,1.4a7.4,7.4,0,0,1-.11,1.5,9.25,9.25,0,0,0-.1,1.61c0,.29.35.61,1.07,1a6.22,6.22,0,0,0,3.55-3,6.22,6.22,0,0,1,3.87-3c.43.15.68.34.75.59a3,3,0,0,1,.11.81v.75q2.36,4.41,2.36,6a6,6,0,0,1-.48,2.1,24.11,24.11,0,0,1-2.42,4q-4,5.91-7.63,12.36l-.54,1a5,5,0,0,0-1.29,3.11,3.87,3.87,0,0,0,.65,1.94,62.23,62.23,0,0,0,12.14-1.51l4-1.5a55.29,55.29,0,0,0,12.15-5.91q9-6.88,10.1-16.34a11.9,11.9,0,0,0-1.83-4,30.5,30.5,0,0,0-6.45-7.41,22.58,22.58,0,0,0-10-4.41,4.42,4.42,0,0,0-1.19-.11v-.11a36.48,36.48,0,0,1,6.78.54,34,34,0,0,1,16.12,5.16,2.56,2.56,0,0,0,.54-1.5,4.37,4.37,0,0,0-.17-1c-.1-.43-.84-.93-2.2-1.51a49.88,49.88,0,0,0-16.12-4.51c-1.44-.14-2.83-.22-4.19-.22a40.63,40.63,0,0,0-5.16.33c-.79.14-1.61.25-2.47.32a32.71,32.71,0,0,0-11.18,2.69,5.35,5.35,0,0,1-2.37.64,6.92,6.92,0,0,1-3.38-1.18A7.65,7.65,0,0,0,560.63,25a12.45,12.45,0,0,0-2.15.21,37.15,37.15,0,0,1-5.8.86q-4.51.75-8.6,1.61-7.41,1.62-14.83,3Q520,32.46,511,34.6a.44.44,0,0,1-.22-.05.18.18,0,0,1-.11-.16.1.1,0,0,1,.11-.11q6.78-2.89,14.19-6.56,6.45-3.22,13.33-6.34a7,7,0,0,1,4.35-3.28,41,41,0,0,1,6.72-1.34l2.15-.32a86.56,86.56,0,0,1,9.24-2.37,22,22,0,0,0,4.73-1.29,2.28,2.28,0,0,0-2-1,3.1,3.1,0,0,0-.75.1,2.54,2.54,0,0,1-.6.11c-.1,0-2.24.43-6.39,1.29v-.21L560,11.6l-.22-.11c0-.35.29-.64.86-.86a9.75,9.75,0,0,1,2.48-.43l1.61-.32A98.15,98.15,0,0,1,579.44,6a45.24,45.24,0,0,1,8.17-.75,41.76,41.76,0,0,1,6.67.54,64.1,64.1,0,0,1,28.48,7.09,27.5,27.5,0,0,1,9.4,7.26A58.28,58.28,0,0,1,638,29a9.18,9.18,0,0,1,1,2.26l.32.86a14.1,14.1,0,0,0,.22-2.47,17.21,17.21,0,0,0-1.4-6.45q-1.39-3.43-6.23-7V16a.29.29,0,0,1,.1-.16h.11l.22.11q7.18,4.3,10.21,10.1a5.23,5.23,0,0,1,.32-1.18q2.58,2.47,2.58,4.73a5.08,5.08,0,0,1-.16,1.24,7.29,7.29,0,0,0-.22,1.07,2.12,2.12,0,0,1-.16.7,28.27,28.27,0,0,1,.54,5.59q0,10.22-6.56,20.21a24.31,24.31,0,0,1-13.65,10.31h-.54a2.58,2.58,0,0,1-2.15-1,81.23,81.23,0,0,1-17.09,11l-.1.11A60.76,60.76,0,0,0,622.65,73l.22-.1a.78.78,0,0,1,.27,0,.26.26,0,0,1,.16.27l-.11.21a157.52,157.52,0,0,1-25.9,12.69q4.19,3.33,4.94,6.12a9.79,9.79,0,0,1,.32,2.53,7.73,7.73,0,0,0,.22,2.1c.5,1.07,2.93,2.25,7.31,3.54a4.19,4.19,0,0,1,2.36,1.18q3.87,3.87,7.74,8.17,3.44,3.87,3.44,5.48c0,.79-.75,1.19-2.26,1.19h-.64a10.56,10.56,0,0,0,1,3.81,5.72,5.72,0,0,0,3.11,2.15c1.62.61,4.25,1.38,7.91,2.31a160.73,160.73,0,0,1-28.59-4.83q-1.73-.65-7-5.81a34.24,34.24,0,0,0-5-4.51l.86,1.18a90.15,90.15,0,0,0,6.88,8c.07,0,.1,0,.1.11v.11a.31.31,0,0,1-.21.11h-.22l-4.3-2.48a42.88,42.88,0,0,1-11.17-8.38l-1-1.07a2.5,2.5,0,0,1-1.08-.43,26.54,26.54,0,0,1-3.87-4.52,4.73,4.73,0,0,1-.75-2.58,7.17,7.17,0,0,0-.21-2A2.18,2.18,0,0,0,576,96.35a10.78,10.78,0,0,0-3.28-.7,1.71,1.71,0,0,1-1.34-.7,6.24,6.24,0,0,1-.91-1.34q-2.8-6.12-12.15-6.13a4.41,4.41,0,0,1-1.18-.1h-.22c0-.07,0-.11.06-.11l.43,0c.25,0,1.73-.34,4.46-.92l2.47-.54c-.72-1.72-1.79-2.58-3.23-2.58a6.16,6.16,0,0,0-2.79.86,6.65,6.65,0,0,0-1.94,2.69,2,2,0,0,1-.26.65,5.14,5.14,0,0,1-.49.53q-9.35,11.19-12,23.65Q541,121.34,538,132.09a3.24,3.24,0,0,1-.65-1.83,5.6,5.6,0,0,1,.48-2,5.6,5.6,0,0,0,.49-2.15c-.08-.64-.61-1.29-1.61-1.93a76.06,76.06,0,0,1-8.28,8.27,97,97,0,0,0-7.42,7.15A24.18,24.18,0,0,0,515.92,147.67ZM592,78.89a14.74,14.74,0,0,0,6.66-1.35,21.14,21.14,0,0,0,5.38-4q-8.49,3-14.51,5.27Z" transform="translate(0 -1.39)"/><path class="cls-1" d="M639.31,143.16H639c-.29,0-.43-.11-.43-.32a58.12,58.12,0,0,0,3.87-15.26l1.18-6.88a2.37,2.37,0,0,0-2.15-1.19,36.86,36.86,0,0,0-5.48.65,2,2,0,0,1-.54-1.29l.11-.65.86-1.72c1.07-1.43,1.61-2.4,1.61-2.9a.88.88,0,0,0-.21-.64c-1.36-1.15-2-2.26-2-3.33a8,8,0,0,1,1.72-4.3,7.85,7.85,0,0,0,1.72-4.2,1.91,1.91,0,0,1,1.19-1.77,11.57,11.57,0,0,1,2.58-.91c1.36-.29,2-.61,2-1a.93.93,0,0,0-.32-.54,3.52,3.52,0,0,1-1.4-2.47v-.75a4.94,4.94,0,0,1,.64-1.94l.11-.32c1.08,0,1.61.29,1.61.86V93.4c0,.36.29.64.86.86a41.44,41.44,0,0,0,4.79-7.85q3-5.8,5.37-11.93c1.61-4.09,2.49-7.13,2.63-9.14l-1.39,1.72a30.84,30.84,0,0,0-3.12,4.09,5.85,5.85,0,0,0-.75,2.79,5.67,5.67,0,0,0,.27,1.72,2.8,2.8,0,0,0,.53,1.13c.18.18.27.3.27.38s-.45.3-1.34.48a3,3,0,0,0-1.88,1,5.62,5.62,0,0,0-.86,1.56l-.33.85a13.35,13.35,0,0,0-1.07,2.26,15.09,15.09,0,0,1-3.55,5.48q.1-1.93,3.07-10.21t7-18.7q9.78-25,12-28.16h.11a134.44,134.44,0,0,1,8.49-14.4.5.5,0,0,1,.38-.27,2,2,0,0,1,.38-.06.42.42,0,0,1,.26.17.5.5,0,0,1,.17.37,86.21,86.21,0,0,0-2.15,10.86l3.22-3.12a20.28,20.28,0,0,0,6.66-8.81A67,67,0,0,1,691,2.14a.44.44,0,0,1,.43-.21c.5,0,.75.14.75.43a24.64,24.64,0,0,0-.32,4,22.57,22.57,0,0,0,.59,5.11,22.08,22.08,0,0,1,.59,5,19.47,19.47,0,0,1-.64,4.94,17.8,17.8,0,0,1-3.33,5.27,1.32,1.32,0,0,1,1,.75A24.28,24.28,0,0,1,690.9,34a50.13,50.13,0,0,1-.53,5.91q-.87,6.24-6,13.65c-.79,3.15-1.51,6.31-2.15,9.46a141.25,141.25,0,0,1-5.59,20.85l-1.08,2.69L675,88.13a43.28,43.28,0,0,1-4.41,11.93q-3.23,6-6.93,11.72t-6.4,10.85c-.07.15-.32.22-.75.22s-.43-.11-.43-.33a37.92,37.92,0,0,0,.75-5c-.29,0-.47,0-.54-.11v-.21l.65-1.4a.72.72,0,0,0,.16-.27,5.71,5.71,0,0,0,0-1.12q-1.39,2.36-2.58,4.62a108.36,108.36,0,0,1-7.73,12.68,127.3,127.3,0,0,0-7,11.29A.73.73,0,0,1,639.31,143.16Z" transform="translate(0 -1.39)"/><path class="cls-1" d="M710,128.76l-4.63-.11a11.74,11.74,0,0,1-6.87-2.36l1.93-.11a20.86,20.86,0,0,1,3.44.27,17.67,17.67,0,0,0,2.9.27,10.57,10.57,0,0,0,4.73-1,6.06,6.06,0,0,0-2.79-1.61,25.62,25.62,0,0,0-3.34-.65l-2.15-.32-1.18-.22a43.39,43.39,0,0,1-11.93-3.44l-.32-.21c-1.94-.79-2.9-1.51-2.9-2.15L687,115a21.31,21.31,0,0,0-1.88-8.76,21.21,21.21,0,0,1-1.88-8.65c0-.86,0-1.69.11-2.47L685,88l1-4.51a9.3,9.3,0,0,0,.54-2.05l-.11-.64a34.63,34.63,0,0,1-1.4-7.2,10.52,10.52,0,0,1,.16-1.67,14,14,0,0,1,1-2.85l.1-.21q2.81-7.1,5.27-14.19a2.33,2.33,0,0,0,.32-.75,13.79,13.79,0,0,1,1.51-3.12,54.94,54.94,0,0,1,6.71-11q4.14-5.31,8.66-10.26,1.71-1.83,3.33-3.76h.11v.11A46.65,46.65,0,0,0,705.31,42l.21-.54a61,61,0,0,1,8.06-12.31,40.87,40.87,0,0,1,12.58-9.51,40,40,0,0,1,19.35-4.83,48.49,48.49,0,0,1,7.09.53,45.83,45.83,0,0,0,6.34.43,62.82,62.82,0,0,1,16.66,2,15.6,15.6,0,0,1,9.46,6.88,11.81,11.81,0,0,0,2.9,3.12l.43.32A18.9,18.9,0,0,0,780,17.46q-6.45-4.14-18.6-5.11c2.3-.14,4.48-.21,6.56-.21q14.29,0,22,6.34,8.38,7,8.39,21.17a72.61,72.61,0,0,1-4.09,23.22q2.26-4.62,5.06-9.24a.43.43,0,0,1,.32-.11.29.29,0,0,1,.32.32,54.84,54.84,0,0,0-3.22,12.74,59.06,59.06,0,0,1-3.61,13.7Q790.55,87,783.12,91l-.86.11-.75-.11q-10.43,17.2-14.94,17.2l-1.07-.11a85.67,85.67,0,0,1-11.72,10.1,36.92,36.92,0,0,1-7.2,4.09A103.79,103.79,0,0,1,710,128.76Zm-9-12.47a8.94,8.94,0,0,0-3.44-4.51,28.85,28.85,0,0,0-5-2.8l-.64-.32a14.58,14.58,0,0,0,3.17,4.94A11.86,11.86,0,0,0,701,116.29ZM728.42,113a14.65,14.65,0,0,0,2.41-.22c.9-.14,1.92-.28,3.07-.43a31.88,31.88,0,0,0,6.77-1.29,5.83,5.83,0,0,0,4.08-3.76,25.19,25.19,0,0,1-10,3.76l-2.15.11q-5.16,0-11.83-4.73l-.21-.21a22.2,22.2,0,0,0,9.67,2.58q8.93,0,17.09-10.22A115.13,115.13,0,0,0,756.68,85q5.7-9.67,10.86-14.08h.11a48.6,48.6,0,0,0,3.22-11.5,18.73,18.73,0,0,0,.22-2.79,23.39,23.39,0,0,0-1.83-8.82v-.75a3.06,3.06,0,0,1,.43-.59,5.89,5.89,0,0,0,.75-1.56V44.6a25.5,25.5,0,0,0-2.9-6l-.11-.22-1.18-1.82q-8.6-5.16-13.87-5.16a17.15,17.15,0,0,0-3.76.43,29.48,29.48,0,0,0-12.36,6.88,13.6,13.6,0,0,1,.43,2,1.23,1.23,0,0,1-.75,1.07A27.53,27.53,0,0,0,729.28,49a28.3,28.3,0,0,1-6.13,6.93c.07,0,.11,0,.11.06a.29.29,0,0,0,.1.16L723,56l.11-.21v-.11a45.47,45.47,0,0,0-6.56,21.07c0,.21-.14.32-.43.32h-.32a.34.34,0,0,1-.32-.22,35.06,35.06,0,0,1-1.4-10.53,106.85,106.85,0,0,0-4,27.19,6.7,6.7,0,0,0,.76,3.44,36.6,36.6,0,0,1,2.36-8.49c.5-1.36,1-2.79,1.4-4.3h.21v.11a38.92,38.92,0,0,0-.21,4,42.07,42.07,0,0,0,2.25,13.54Q720.78,113,728.42,113Zm26.22-14.51a27.08,27.08,0,0,0,2.26-2.58A49.66,49.66,0,0,1,762.7,90a1.56,1.56,0,0,0,.65-1.19,2.55,2.55,0,0,1,.11-.64c.07-.29.71-.82,1.93-1.61,1.51-1,2.26-1.83,2.26-2.48a2.43,2.43,0,0,0-.86-1.61,6.44,6.44,0,0,0-1.72,1.45,10.85,10.85,0,0,0-1.13,1.72,5.22,5.22,0,0,0-.59,1.83c-.07.61-.11,1.06-.11,1.34s-.11.43-.32.43l-1.29-.1A77.39,77.39,0,0,1,754.64,98.45ZM783.88,47.5a5.43,5.43,0,0,0,.43-1.93A6.93,6.93,0,0,0,783,42C783.45,44.24,783.73,46.07,783.88,47.5Z" transform="translate(0 -1.39)"/><path class="cls-1" d="M26.71,269.37h-.23c0-.15,0-.22.08-.22a108.82,108.82,0,0,0,14.85-4.73l-7.2,1.8-.07-.07,1.27-.53H33.69a1.07,1.07,0,0,1-.15-.6q-6.52.9-13.28,1.43A111.41,111.41,0,0,0,.53,269.3H.3c-.2,0-.3-.08-.3-.23s.45-.32,1.35-.67a182.15,182.15,0,0,1,20.71-6.68.89.89,0,0,0-.6-.45,4.51,4.51,0,0,0-.87-.07,4.42,4.42,0,0,1-.86-.08,1,1,0,0,1-.6-.37L24.61,259a103.24,103.24,0,0,0,14.78-5.33v-.15a.43.43,0,0,1,.3.08l-.23.07a14.26,14.26,0,0,0,5.56-1.5,28.93,28.93,0,0,1,2.92-1.05l.08-.45a.9.9,0,0,0-.34-.67,4.06,4.06,0,0,0-1-.6,3.33,3.33,0,0,1-1-.6.83.83,0,0,1-.3-.53,1.34,1.34,0,0,1,.23-.67,31.48,31.48,0,0,0,4.72.37q8.4,0,18.23-6.38,13.52-8.25,20-19.05a4.94,4.94,0,0,0,.45-.75q7.35-11,9.75-21a16.67,16.67,0,0,0,.52-4.05,11.13,11.13,0,0,0-1.87-6.38,27,27,0,0,0-5-5.14,17.11,17.11,0,0,0-7.24-3.11l-.9-.08V182h.07a26.32,26.32,0,0,1,4.73.37A25.34,25.34,0,0,1,100.76,186a2.45,2.45,0,0,0,.22-1,2.4,2.4,0,0,0-.18-.79c-.13-.33-.67-.69-1.62-1.09l-.3-.08A38,38,0,0,0,87.71,180a24.75,24.75,0,0,0-2.71-.15,24.11,24.11,0,0,0-3.82.3l-1.73.15a21.51,21.51,0,0,0-7.65,1.87,3.73,3.73,0,0,1-1.65.45,5.65,5.65,0,0,1-2.51-.82,6.18,6.18,0,0,0-2.89-.83,5.93,5.93,0,0,0-1.28.15,24.62,24.62,0,0,1-4,.6q-3.08.52-5.85,1.13-5.1,1.2-10.2,2.18-6.32,1.11-12.46,2.62h-.15l-.07-.15c0-.05,0-.07.07-.07q4.5-1.95,9.45-4.58,4.29-2.25,8.86-4.35a4.64,4.64,0,0,1,3-2.4A31.85,31.85,0,0,1,58,175.07c2-.6,4.08-1.15,6.38-1.65a12.22,12.22,0,0,0,3.15-1,1.59,1.59,0,0,0-1-.6c-.45,0-.84,0-1.16,0s-1.84.34-4.54.94l-.15-.08.07-.07,2.85-1-.15-.08v-.07a.44.44,0,0,1,.23-.38,6.52,6.52,0,0,1,1.57-.38,2.73,2.73,0,0,0,.83-.11l.75-.18a58.35,58.35,0,0,1,10.05-2.63,33.06,33.06,0,0,1,5.85-.53,33.53,33.53,0,0,1,4.43.3,49.09,49.09,0,0,1,20.33,5,22,22,0,0,1,7,5,35.47,35.47,0,0,1,5.78,8.41A13.12,13.12,0,0,0,119,180a14.37,14.37,0,0,0-4.92-5.1v-.19s0-.06.08-.11h.22a21.81,21.81,0,0,1,7.73,7l.15-.83c1.45,1.25,2.18,2.43,2.18,3.53l-.08.6a6.72,6.72,0,0,0-.15,1.28,21.17,21.17,0,0,1,.83,5.92l-.08,2.1-.22,3.75a25.17,25.17,0,0,1-1.35,8.56,38.58,38.58,0,0,1-1.58,4,35.87,35.87,0,0,0-2.55,7.81,12.85,12.85,0,0,1-3,6.11,56.75,56.75,0,0,1-5.33,5.44c-.6.5-1.17,1-1.72,1.58q-1.65,1.5-3.38,2.85a28.34,28.34,0,0,0-5.7,5.47,3.36,3.36,0,0,0,.9.15,2.92,2.92,0,0,0,1.5-.6,7,7,0,0,1,.71-.37,2.4,2.4,0,0,1,.94-.15c.2.15.3.27.3.37s-.05.33-.15.38c-.25.25-.4.37-.45.37q-13.43,10.89-35.56,19.89a.32.32,0,0,0-.23.07,6.09,6.09,0,0,1-1.65.49,12.09,12.09,0,0,0-1.65.34l-6.52,2.17c-2.81.9-5.53,1.7-8.18,2.4a17.78,17.78,0,0,0-1.95,1,2.69,2.69,0,0,1-1.35.45,1.33,1.33,0,0,1-1-.38A122.54,122.54,0,0,1,26.71,269.37Zm17.18-28.28,3.9-4.2a4.69,4.69,0,0,0,.53-.83A1.66,1.66,0,0,1,50,234.79l.82.07c.85.25,1.3.63,1.35,1.13v.37a2.75,2.75,0,0,1-.37,1.35l-.15.15a.87.87,0,0,0-.15.6c0,.45.52.95,1.57,1.5q6.75-12.53,14-24.68l3.22-5.4q2-3.67,2.41-3.68s.07.05.07.15a9.58,9.58,0,0,1-.53,2l-.6,2.33a12.17,12.17,0,0,1-1.12,2.78,8.86,8.86,0,0,0-1.35,4.2,6.2,6.2,0,0,0,.37,2.1l1.65-3.38q1.57-3.37,3.23-6.45.9-1.65,1.65-3.3h.38q1.05-2.33,2.1-4.88l2-3.75a10.61,10.61,0,0,0,1.65-4,4.3,4.3,0,0,0-.33-1.47,21.55,21.55,0,0,0-1.69-3l-.08-.3V189a1,1,0,0,0-.67-1,3.61,3.61,0,0,0-2.48,2.1,3.83,3.83,0,0,1-2.32,2.18,1.55,1.55,0,0,1-.9-1.35l.15-1.05a1.9,1.9,0,0,0-.12-.64c-.07-.23-.41-.49-1-.79a34.14,34.14,0,0,1-4.58,1.91,43.58,43.58,0,0,0-5.1,2.14,6.17,6.17,0,0,0-3.15,3,2,2,0,0,1-1.42,1,4.78,4.78,0,0,1-1.28.15,9.8,9.8,0,0,1-1.58-.15l.68-1a18.5,18.5,0,0,0,1.2-2.18,4.11,4.11,0,0,0,.38-1.72l-.08-.6a8.29,8.29,0,0,0-2.18,2.25,37.58,37.58,0,0,0-2.4,6.67,66.06,66.06,0,0,1-2.25,6.76A58.82,58.82,0,0,0,47,222.86l-.37.6a20.89,20.89,0,0,0-3.53,11.63A25.28,25.28,0,0,0,43.89,241.09Z" transform="translate(0 -1.39)"/><path class="cls-1" d="M139.47,251.44a53.28,53.28,0,0,1-6.15-.37q-.37,0-.45-.15l-4.05.37q-1.87.15-3.75.15h-1.28a12,12,0,0,1-4.87-1.05c-.6,0-2,.1-4.21.3a.15.15,0,0,1-.11,0,.16.16,0,0,1,0-.11h.08a24.59,24.59,0,0,1,2.78-.67,14.73,14.73,0,0,0-2.71-.23l-1.91-.15a8.23,8.23,0,0,1-1.69-.3,1.62,1.62,0,0,1-1-.82l-.07-.3q0-.67,2-1.2a4.83,4.83,0,0,1,2-.45c1.5-.15,2.36-.48,2.56-1a1.55,1.55,0,0,0-1-1.35q-2-1.12-2-2.1c0-.05,0-.28.11-.68s.69-1,1.84-1.8a8.42,8.42,0,0,0,2.1-2.55l.83-1.2a10.4,10.4,0,0,1,1-1l.08-.3a.24.24,0,0,0-.12-.22c-.07-.05-.11-.1-.11-.15-1.1,1.6-2.17,3.22-3.23,4.87a.29.29,0,0,1-.3.15c-.34,0-.52-.1-.52-.3a22.28,22.28,0,0,1,2.55-6.75,1,1,0,0,1-.71-.26.72.72,0,0,1-.26-.49l.07-.22q.83-2.85,2-5.78c-1,0-1.42-.38-1.42-1a2.18,2.18,0,0,1,.45-1,2.36,2.36,0,0,0,.3-.75,33.26,33.26,0,0,1,6.3-10.43q.6-1.5,1.2-2.7a13.59,13.59,0,0,1,2.77-6.68,14.85,14.85,0,0,0,2.7-5.1,32.44,32.44,0,0,0,1.06-5.33,24.78,24.78,0,0,1,2.17-8,28.25,28.25,0,0,0,1.43-3.6q1.35-3.37,2.1-5.62a9.68,9.68,0,0,0,1.57.15,4.58,4.58,0,0,0,3-1.13,7.82,7.82,0,0,1,1.32-.79,4.37,4.37,0,0,1,1.72-.37,2.63,2.63,0,0,0,1.5-.41,3.42,3.42,0,0,0,.79-.83,3.24,3.24,0,0,1,.83-.82,8.63,8.63,0,0,1,5-1.73,9.39,9.39,0,0,1,4.88,1.5,6.12,6.12,0,0,0,2.78.67l1.05-.07q5.85-.68,6.6-.9a32.79,32.79,0,0,1,3.82-.38c2.56-.15,5-.22,7.43-.22,1.3,0,2.58,0,3.83.07,1.5.06,3.77.08,6.83.08a5.38,5.38,0,0,1,1.68.26,2.15,2.15,0,0,1,1.24,1.24l-4.65-.08-4.65.08c2.4.35,4.77.73,7.13,1.13q4.88.82,9.6,1.35a15.7,15.7,0,0,0,1.57-.08l.15.08v.07l-.15.08.68.07c.4,0,.92.09,1.58.11s1.32,0,2,0l1.88.08v.07a.07.07,0,0,1-.08.08q-6.45.6-15.38.6a.84.84,0,0,0-.37.67,1.29,1.29,0,0,0,.37.75,2.17,2.17,0,0,0,1.65.45l2.18-.15,12.53-.45,5-.22a12.19,12.19,0,0,1-4.54,2,29.93,29.93,0,0,1-4.38.48l-.53.08a9.09,9.09,0,0,0-2.74.3,1.28,1.28,0,0,0-.86,1.35v.22c0,.4-.28.68-.83.83a10.86,10.86,0,0,1-2.92.37l-7,1c-2.51.4-4.79.69-6.87.86s-5.29.29-9.64.34a5.88,5.88,0,0,1-1.8-.15.77.77,0,0,1-.45-.08l-2,.08a8.63,8.63,0,0,0-4,.94,3.57,3.57,0,0,0-1.65,2.21l-1.28,3.75a62,62,0,0,0-2.4,8,1.37,1.37,0,0,0,.68,1.24c.45.27,1.85.41,4.2.41h2.47l2.33.15a1.27,1.27,0,0,1,.41.23,3,3,0,0,0,.49.3,12.44,12.44,0,0,0,2.17.45,86.56,86.56,0,0,0,9.83.67l4,.08a8.53,8.53,0,0,1-4.8,1.2,8.54,8.54,0,0,0-4,.82,29.39,29.39,0,0,0,8.18,1.13c.75,0,1.52,0,2.33-.08s1.6-.07,2.4-.07a27.73,27.73,0,0,1,7.87,1.12,21.21,21.21,0,0,0-3-.22,15.84,15.84,0,0,0-7.8,2,8,8,0,0,1-3.75.67A59.29,59.29,0,0,0,179,210a41.83,41.83,0,0,1-11.1,1.5,19.26,19.26,0,0,1-3.45-.3c-.65-.15-1.85-.32-3.6-.52a73.61,73.61,0,0,1-9.23,1.12c-1.8.15-3,.59-3.64,1.32a5.45,5.45,0,0,0-1.24,2.36,107.07,107.07,0,0,1-4.58,10.88q6-8.77,7.28-10.8l.15-.08a.22.22,0,0,0,.15.08c.05,0,.08,0,.08.07l-.08.08a144.48,144.48,0,0,1-6.45,16.5l-2.78,6.08c2.5-.25,4.35-.38,5.56-.38.79,0,2.25-.05,4.35-.15q4.27-.3,8.62-.37a9.11,9.11,0,0,1,3.83-.9,22.72,22.72,0,0,1,5.48.82c1,.2,2,.38,3.07.53a1,1,0,0,0,.53.07,11.33,11.33,0,0,0,1.87.15.64.64,0,0,1,.38.23l4.2.82.15.23a56.65,56.65,0,0,1-6.45.22,26.2,26.2,0,0,0-3.86.72,1.79,1.79,0,0,0-1.32,1.46q3,.3,6,.3a60.16,60.16,0,0,0,9.91-.83q3.38-.45,6.9-.75a8.9,8.9,0,0,1-5.78,2.4c-.75.11-1.47.23-2.17.38a22,22,0,0,1-3.57.64,25.6,25.6,0,0,0-3.64.6,5.55,5.55,0,0,0-2.85,1.61,4.46,4.46,0,0,1-2.25.3l-1-.07a6,6,0,0,0-1,.07,22.09,22.09,0,0,1-2.62.3,25,25,0,0,0-7.28,1.35q6-.37,11.93-1.27h.22c0,.15-.05.22-.15.22a97.53,97.53,0,0,1-20.7,3.68l-4.28.37A48.39,48.39,0,0,1,139.47,251.44Zm-12.9-36.16a42.5,42.5,0,0,0,4.35-7.65l1.65-3.38.19-.22a.66.66,0,0,0,.11-.38.2.2,0,0,1-.07-.11s0-.1,0-.23a1.73,1.73,0,0,1,0-.41,5.91,5.91,0,0,1,.75-2.1,5.53,5.53,0,0,0,.83-2.93l-.83.75-1.42,2.86a2.43,2.43,0,0,0,.45,1.5l.3.52c0,.15-.18.23-.53.23a2.25,2.25,0,0,0-.82.11c-.21.07-.41.14-.61.19q-2,4.8-3.75,9.6Zm29-20.26q1.58-2.47,3.08-5l1.72-2.78.46-1.95a12.73,12.73,0,0,0-3.08,4.09A26.57,26.57,0,0,0,155.6,195Zm.08,5.25a21.21,21.21,0,0,0,2.85-5.77l-2.93,5.7Z" transform="translate(0 -1.39)"/><path class="cls-1" d="M193,275.08a9.4,9.4,0,0,1-1.2-.12c-.55-.07-1.42-.74-2.62-2a4.66,4.66,0,0,0-3-.82,10.41,10.41,0,0,1-3.9-.75,2.83,2.83,0,0,0,.15-.9q0-1.65-2.4-3.9a4,4,0,0,1-.9-1.58V265c0-.45.38-.68,1.13-.68a9,9,0,0,0,4.69-1,12.67,12.67,0,0,0,2.66-2.18,16.11,16.11,0,0,1,2.25-2.06,1.72,1.72,0,0,0,.6-.6,5.69,5.69,0,0,0,1.65-4.2,10.72,10.72,0,0,0-.22-2.1l-1.65,1.42a9.52,9.52,0,0,1-.79.75h-.11v-.15a1.36,1.36,0,0,0-.15-.48,3.19,3.19,0,0,1-.19-.49c0-.1-.06-.21-.11-.34a.86.86,0,0,0-.3-.34,6.34,6.34,0,0,0-3,2.78,7,7,0,0,1-3.15,2.92l-.6-.6c-.15-.15-.22-.25-.22-.3a36.78,36.78,0,0,0,2.32-7.57,39.89,39.89,0,0,1,2.18-7.43q5-10.8,12.64-29.56t12-29.86a36.15,36.15,0,0,0,1.13-4,17.67,17.67,0,0,1,2.17-6.07q1.95-3.6,8.48-7.51a1.57,1.57,0,0,0,.56-.52,3.92,3.92,0,0,0,.34-.68.29.29,0,0,0,.08-.22,26.29,26.29,0,0,1,4-5.4,21,21,0,0,0,4.73-7.36,1.26,1.26,0,0,1,.52-.93,3.61,3.61,0,0,1,2-.34,14.28,14.28,0,0,1-1.65,4.57,12.11,12.11,0,0,0-1.73,5c-.2,1.78-.3,3-.3,3.64q0,3.6,4.58,6.08l.15.15a.21.21,0,0,0-.07-.15h-.08a15.26,15.26,0,0,1,.3,3l-.07,1.58a36.14,36.14,0,0,1-2.22,8.51q-1.61,4.1-3.56,8-2.18,4.42-3.9,8.93a5.06,5.06,0,0,0-.3,1.58.73.73,0,0,0,.15.48,2.11,2.11,0,0,1,.22.34l-.07.6a5.13,5.13,0,0,1-.68,1.35,3,3,0,0,0-.37,1.13v.07a2.8,2.8,0,0,0,.82,1.65,23,23,0,0,0,2.82-3.79,22.29,22.29,0,0,0,1.31-2.89,28.28,28.28,0,0,1,2.18-4.8,31.87,31.87,0,0,1-1,7.32,36.45,36.45,0,0,1-2.14,5.36l-3.6,7.81A34,34,0,0,1,223,225.48l-1.28,3.61A60.16,60.16,0,0,1,215,244.31h-.08a1.53,1.53,0,0,1-.3,0,13.87,13.87,0,0,1-.15-3.27c0-1.7.08-3.4.23-5.1q-9.53,17.79-11.48,22.66a19.71,19.71,0,0,0,3.53.37,23.85,23.85,0,0,0,3.6-.22l.52-.07q9.23-1.36,15.91-2a10.79,10.79,0,0,0,1.31-.26,6.81,6.81,0,0,1,1.76-.19c.15,0,.5,0,1,.07a7.77,7.77,0,0,1,2.93,1.65,3.71,3.71,0,0,0,1.95.53,13.11,13.11,0,0,0,2.85-.3,17.62,17.62,0,0,1,3.6-.38,1,1,0,0,1,.23.45c0,.2-.24.39-.71.57s-.72.34-.72.49.08.22.23.37a2.56,2.56,0,0,0,1.57.83h1.73a7.87,7.87,0,0,1,1.12-.08,9.19,9.19,0,0,0,4.28-.9,5.62,5.62,0,0,1,3.6-1,17,17,0,0,1,3.3.37,1.56,1.56,0,0,1-.63,1.16,5.92,5.92,0,0,1-1.32.72,4.46,4.46,0,0,0-1.2.67,2.21,2.21,0,0,1-1.24.45c-.52.05-1.11.08-1.76.08l-.82-.08a6.09,6.09,0,0,0-2,.3,1.38,1.38,0,0,0-.91,1.5v.53c0,.5-.75.92-2.25,1.27a10.49,10.49,0,0,0-2.06.79,1.58,1.58,0,0,0-.94,1.46q0,.22-.3.3a4.84,4.84,0,0,1-1.8.3,288.62,288.62,0,0,0-30,4q-6.83,1.2-13.73,2.18l-1.12.3A5.29,5.29,0,0,1,193,275.08Zm4.88-29.71,1.8-3.31a54.67,54.67,0,0,1,2.66-11.89q2-5.73,4.39-11.44,2.78-6.53,4.95-13.28-2.47,4.8-5.44,10.62c-2,3.87-3.69,7.38-5.14,10.5s-2.2,5.12-2.25,6a7.6,7.6,0,0,0-2.7,2.47,2.34,2.34,0,0,0-.45,1.28,1.9,1.9,0,0,0,.53,1.27,4.1,4.1,0,0,1,1.5,2.55,2.59,2.59,0,0,1-.11.68,2.91,2.91,0,0,1-.42.79,3.53,3.53,0,0,0-.45.78,2.14,2.14,0,0,0-.3,1.06c0,.05,0,.21.08.48S197.07,244.67,197.92,245.37Zm16.28-41.19.22-.45a5.85,5.85,0,0,0,1.13-3.08,4.53,4.53,0,0,0-.45-1.88l-1,2Zm15-23.11a13,13,0,0,0,3.08-8.63v-.67a6.13,6.13,0,0,0-2.14,3.11,19.94,19.94,0,0,0-.64,3.64A22.14,22.14,0,0,1,229.2,181.07Z" transform="translate(0 -1.39)"/><path class="cls-1" d="M274.52,263h-.23c-.19,0-.3-.08-.3-.23a40.3,40.3,0,0,0,2.71-10.65l.82-4.8a1.65,1.65,0,0,0-1.5-.83,25.57,25.57,0,0,0-3.83.45,1.4,1.4,0,0,1-.37-.9l.07-.45.6-1.2a4.9,4.9,0,0,0,1.13-2,.64.64,0,0,0-.15-.45,3.25,3.25,0,0,1-1.43-2.32,5.54,5.54,0,0,1,1.2-3,5.5,5.5,0,0,0,1.2-2.93,1.33,1.33,0,0,1,.83-1.24,8.31,8.31,0,0,1,1.8-.63c.95-.2,1.43-.43,1.43-.68s-.08-.22-.23-.37a2.48,2.48,0,0,1-1-1.73v-.52a3.44,3.44,0,0,1,.45-1.36l.07-.22c.75,0,1.13.2,1.13.6v.75q0,.38.6.6a28.35,28.35,0,0,0,3.33-5.48q2.07-4,3.76-8.32a24.6,24.6,0,0,0,1.83-6.38l-1,1.2a21.63,21.63,0,0,0-2.18,2.85,4.07,4.07,0,0,0-.52,2,3.86,3.86,0,0,0,.19,1.2,2,2,0,0,0,.37.79c.12.12.19.21.19.26s-.32.21-.94.34a2.09,2.09,0,0,0-1.31.67,4.27,4.27,0,0,0-.6,1.09l-.23.6a9.14,9.14,0,0,0-.75,1.58,10.59,10.59,0,0,1-2.47,3.82,39.43,39.43,0,0,1,2.13-7.12q2.07-5.78,4.92-13.06,6.82-17.47,8.4-19.66h.08a92.78,92.78,0,0,1,5.92-10.05A.37.37,0,0,1,301,175l.26,0a.29.29,0,0,1,.19.11.36.36,0,0,1,.11.26,61.59,61.59,0,0,0-1.5,7.58l2.25-2.18a14.21,14.21,0,0,0,4.65-6.15,46.42,46.42,0,0,1,3.68-10,.3.3,0,0,1,.3-.15c.35,0,.52.1.52.3a16.92,16.92,0,0,0-.22,2.78,15.25,15.25,0,0,0,.41,3.56,15.6,15.6,0,0,1,.41,3.49,13.62,13.62,0,0,1-.45,3.45,12.37,12.37,0,0,1-2.32,3.68.93.93,0,0,1,.67.52,17.17,17.17,0,0,1,.6,4.58,33.86,33.86,0,0,1-.37,4.13,22.64,22.64,0,0,1-4.2,9.53q-.84,3.3-1.51,6.6a98,98,0,0,1-3.9,14.55l-.75,1.88-.37,1.12a30.11,30.11,0,0,1-3.08,8.33q-2.25,4.2-4.84,8.18t-4.46,7.58c-.05.1-.23.15-.53.15s-.3-.08-.3-.23a27.14,27.14,0,0,0,.53-3.52.6.6,0,0,1-.38-.08v-.15l.45-1a.62.62,0,0,0,.12-.19,5.38,5.38,0,0,0,0-.79c-.65,1.1-1.25,2.18-1.8,3.23a74.89,74.89,0,0,1-5.4,8.85,90.85,90.85,0,0,0-4.88,7.88A.5.5,0,0,1,274.52,263Z" transform="translate(0 -1.39)"/><path class="cls-1" d="M301.6,261.65a.67.67,0,0,1-.3-.08q-.15-.07-.15-.15v-.07a39.39,39.39,0,0,0,2.63-10.21c.2-1.55.48-3.07.82-4.57a1.83,1.83,0,0,0-1.57-.83,24.16,24.16,0,0,0-3.68.45,1.4,1.4,0,0,1-.37-.9,2.35,2.35,0,0,1,.52-1.27l.53-.83a4.68,4.68,0,0,0,.75-1.5.54.54,0,0,0-.15-.38,3.28,3.28,0,0,1-1.35-2.32c0-.1,0-.38.11-.83a5,5,0,0,1,1-1.87c.3-.5.57-1,.79-1.43a3.17,3.17,0,0,0,.34-1.46,1.21,1.21,0,0,1,.82-1.16,9,9,0,0,1,1.65-.57,4.88,4.88,0,0,0,1.17-.37c.22-.13.34-.24.34-.34s-.08-.2-.23-.3a2.72,2.72,0,0,1-1-1.8,3.88,3.88,0,0,1,.45-1.73.26.26,0,0,0,.08-.22c.65.1,1,.3,1.13.6v.67a.58.58,0,0,0,.22.53c.15-1.35.3-2.37.45-3.08a1.44,1.44,0,0,1,.34-.75,2.65,2.65,0,0,0,.34-.33,3.33,3.33,0,0,0,.33-.57c.13-.25.29-.62.49-1.12l.08-.38a22.66,22.66,0,0,1,2.77-7.35q2.55-6.9,4.13-11.93a48,48,0,0,1,2.77-7.65A53.85,53.85,0,0,1,320,189.7,33.81,33.81,0,0,1,326.74,179V179l.52-.83-.52-2.4c0-.2.12-.3.37-.3s.4.08.45.23a4.2,4.2,0,0,0,.23.52,4,4,0,0,1,.22.53,4.43,4.43,0,0,1,.72-1.05,1.48,1.48,0,0,1,1.16-.45,1.27,1.27,0,0,1,1.05.37l.9,1.58,2.33-2.7a45.31,45.31,0,0,0,3.6-4.58.29.29,0,0,1,.22-.08c.2,0,.3.08.3.23v.07a18.68,18.68,0,0,0-.9,5.78l.08,3.15,1-2.55.23-.15h.22q.15.07.15.15a26.66,26.66,0,0,1,.83,4.35,2.77,2.77,0,0,1,1.35,1.5q.9,2.41,1.57,4.81a63.25,63.25,0,0,0,2.33,6.75l.22.45a3,3,0,0,1,.75,1.42,2.66,2.66,0,0,0,1.43,1.13,9,9,0,0,0,1.91.41,6.19,6.19,0,0,1,1.77.45,1.31,1.31,0,0,1,.75,1.31,2.35,2.35,0,0,1-.83,1.58,3.74,3.74,0,0,1,1.05,1.88l.08.22-.68.08a1.21,1.21,0,0,1-.49-.12,1,1,0,0,1-.45-.41,1.63,1.63,0,0,0-.45-.49,1.22,1.22,0,0,0-.71-.18,25.87,25.87,0,0,0,1,6,77.08,77.08,0,0,0,2.63,8.06,22.61,22.61,0,0,0,2.85,5.67v-1.28a14.16,14.16,0,0,0-.42-3.75c-.27-1-1.23-1.92-2.88-2.78v-.14h-.08c.8-.41,1.23-.83,1.28-1.28a26.59,26.59,0,0,0-.9-3.38,7.07,7.07,0,0,1-.68-3.07l.08-.9a22.55,22.55,0,0,1,2.51,4.72q1.6,3.67,4.46,11.63c.45-.15.92-.28,1.39-.41a3.5,3.5,0,0,0,1-.38q.3-.18.3-.33a.74.74,0,0,0-.15-.38,3.17,3.17,0,0,1-.82-1.87v-.6a5.58,5.58,0,0,1,.67-1.73c.7.1,1.05.33,1.05.68l-.07.52v.6c.05.15.22.3.52.45,0-.05,0-.07.08-.07l1.28-5.71a13,13,0,0,1-1.36,1.58,41.58,41.58,0,0,1,2.41-7,25.23,25.23,0,0,1,3.45-8.55q3.45-8.7,4.76-12.68a19.28,19.28,0,0,1,2.06-4.88q3-5.47,6.53-10.65a1,1,0,0,1,.38-.23c.3,0,.45.13.45.38a63.07,63.07,0,0,0-2,8.18l2.33-2.25a16.6,16.6,0,0,0,4.95-6.53,56.81,56.81,0,0,1,4.35-10.65.49.49,0,0,1,.3-.23.53.53,0,0,1,.3.11c.1.08.15.14.15.19v.08a20.3,20.3,0,0,0-.45,4.27,17.56,17.56,0,0,0,.19,2.59,19.15,19.15,0,0,1,.19,2.59,16.3,16.3,0,0,1-.76,4.88,15.65,15.65,0,0,1-2.47,3.9c.55.25.82,1.62.82,4.12a31.75,31.75,0,0,1-.6,5.48,27.15,27.15,0,0,1-4.87,10.58l-1.43,5.25a75.94,75.94,0,0,0,5.4-10.88.75.75,0,0,1,.53-.15.25.25,0,0,1,.15.23l.15,1.65q.3,3.22.3,4.95a8.72,8.72,0,0,1-.9,3.49q-.82,1.68-2.78,4.76l-.6,1.05a119.34,119.34,0,0,0-5.85,12.16l-.52,1a7.7,7.7,0,0,1-.53,1.12,30.43,30.43,0,0,1-1.84,8.52,87.26,87.26,0,0,1-3.56,8.29,81.14,81.14,0,0,0-4.2,10.2q-.07.3-.6.3c-.45,0-.68-.15-.68-.45l.08-3c0-1.05,0-2.07-.08-3.08q-2.47,5.26-5.33,10.43a3.83,3.83,0,0,0,.23.64,3.35,3.35,0,0,1,.22.79v.07c0,.15-.14.23-.45.23a.35.35,0,0,1-.33-.26.65.65,0,0,0-.27-.34,6.64,6.64,0,0,1-.37.67.6.6,0,0,1-.53.23.3.3,0,0,1-.3-.15,20.8,20.8,0,0,1-2.47-4.95l-.23-.23a8.32,8.32,0,0,0-.63,1q-.27.48-.57.93l.08.53v1c0,.45-.3.68-.9.68l-.45-.08-.11.23-.12.19c-.05.07-.2.11-.45.11a.45.45,0,0,1-.26-.08.23.23,0,0,1-.11-.22,5.53,5.53,0,0,0,.45-1A59.62,59.62,0,0,0,353.3,246a75.43,75.43,0,0,1-2.85-8q-6.92-6.9-7.58-14.93a15.43,15.43,0,0,0-1.95-3,5.28,5.28,0,0,0-1.35-1.08q-1.35-.83-2.78-4.43l-1.12-2.85a27.21,27.21,0,0,1-2.93-7l-.6.83q-1.2,4.88-2.29,8.21t-3,8.07l-1.13,2.92a27.28,27.28,0,0,1-2.92,8q-2.19,4-4.69,7.84t-4.39,7.28a.87.87,0,0,1-.6.15l-.15-.22c.2-1.1.37-2.23.52-3.38h-.15c-.2,0-.3-.08-.3-.22a6.12,6.12,0,0,0,.53-1l.07-.08.08-.82a28.77,28.77,0,0,0-1.8,3.08,65.76,65.76,0,0,1-5.25,8.47A77.17,77.17,0,0,0,302,261.5.52.52,0,0,1,301.6,261.65Z" transform="translate(0 -1.39)"/><path class="cls-1" d="M388.93,281.75h-.45q-.3-.15-.3-2.4a46.59,46.59,0,0,1,4.13-18.75,5.64,5.64,0,0,1-1,.22,3.67,3.67,0,0,0-2.25,2.55,8,8,0,0,1-.71,1.5c-.27.45-.57,1-.9,1.54a21.68,21.68,0,0,1-1.16,1.84.49.49,0,0,0-.23.22,1.78,1.78,0,0,1-1.72,1,4.38,4.38,0,0,1-1.43-.45,1.17,1.17,0,0,1-.52-1.12l.07-1.13a9.09,9.09,0,0,1,1-3.9,5.28,5.28,0,0,0,.75-2.55v-1a9.69,9.69,0,0,0-.56-2.21,10,10,0,0,1-.56-2.89l-.08-.67a14.17,14.17,0,0,1,.08-1.47,3.08,3.08,0,0,1,.71-1.53,2.59,2.59,0,0,0,.64-1.5,2.35,2.35,0,0,0-.3-1l-1-1.95a.78.78,0,0,1-.3-.67,1,1,0,0,1,.08-.45,18.21,18.21,0,0,0,2.32-4.21,54.67,54.67,0,0,0,3.6-10.72,37.78,37.78,0,0,1,1.43-6.87,27.86,27.86,0,0,1,2.1-4.39q2.78-4.87,7.5-15.23l.08-1.05a45.32,45.32,0,0,1,3.49-13.69,93.93,93.93,0,0,1,7.09-13.32c0-.05.17-.07.37-.07a.29.29,0,0,1,.08.22,100.78,100.78,0,0,0-3.45,11l4.27-9.15q1.8-3.68,4.2-7.81a2.94,2.94,0,0,1,2.63-1.72,7.17,7.17,0,0,1,2.17.52,5.84,5.84,0,0,0,2.48.53,4.16,4.16,0,0,0,2.48-1.2.29.29,0,0,1,.22-.08,1,1,0,0,1,.41.12,1.46,1.46,0,0,1,.53.41,1,1,0,0,1,.26.67l-.07.9c0,1.06.42,1.63,1.27,1.73a17.44,17.44,0,0,0,3.83-.38q6.22-1.19,10.31-1.72t10.32-.9h.6l-.6.15a3.31,3.31,0,0,0-1.8.52v.08c0,.05.17.1.53.15a46.8,46.8,0,0,0,7,.52,52,52,0,0,0,6.15-.37,17.13,17.13,0,0,1,3.3-.38c.3,0,.83,0,1.58.12a3.42,3.42,0,0,1,2.25,1.76,1.54,1.54,0,0,0,1.27.68l3.45-.08a12.34,12.34,0,0,1,3,.38,44.33,44.33,0,0,1-11.25,1.65c-.75,0-1.48,0-2.17-.08a4,4,0,0,0-2.11.34,1.1,1.1,0,0,0-.45.94l3.61-.08a78.33,78.33,0,0,1,20.85,2.55,139.79,139.79,0,0,1-15.9,1.13,11.15,11.15,0,0,1-3.15.75q-3,.6-8.26,1.8l-5.25,1.12q-3.9.75-13,1.73a33.3,33.3,0,0,0-7.73,2.1,36.28,36.28,0,0,1-6,1.88,2.18,2.18,0,0,0-1.5,1q-.6,3.38-2,8.89c-.95,3.67-1.78,6.64-2.48,8.89a51.41,51.41,0,0,0,6-.45c2.25-.25,4-.4,5.33-.45a64.42,64.42,0,0,1,6.6.26c1.55.18,3.58.51,6.08,1,.55.15.82.3.82.45s-.1.2-.3.3q-3.3.9-6.82,1.5a42,42,0,0,1,8.92,2,93.3,93.3,0,0,1,11.63.82l-6.6.68.38.15,1.27.3q.15.08.15.15c0,.05,0,.1-.11.15a.37.37,0,0,1-.19.07H456a37.9,37.9,0,0,0-9.76,1.28l-.3.08a1.66,1.66,0,0,1-.75,1.16,3.41,3.41,0,0,1-1.54.6c-.57.07-1.11.16-1.61.26q-1.43.22-2.55.3h-3l-2.4-.07a38.13,38.13,0,0,0-7.58.9,65,65,0,0,1-6.75,1,15.26,15.26,0,0,0-2.18.3,45.41,45.41,0,0,1-3.37,5.32,1.22,1.22,0,0,1-.68.53c-.35,1.2-.64,2.16-.86,2.89s-.39,1.27-.49,1.65a3,3,0,0,1-.3.79,46,46,0,0,0-2.62,4.05l-.23,2,2.1-2.92.68-.75a16.06,16.06,0,0,0,1.12-2.78.32.32,0,0,1,.23-.07c.05,0,.07,0,.07.07l-.6,3.53a31.86,31.86,0,0,1-1.05,5,39.66,39.66,0,0,1-2.7,6.11,29.81,29.81,0,0,0-1.88,4,62.55,62.55,0,0,1-3.07,6.07l-1.65,3.15q-5.93,11.64-12.91,23.11A.73.73,0,0,1,388.93,281.75ZM407,197.42a5.37,5.37,0,0,0,.76-2.77l-.08-.75a.5.5,0,0,1-.07.19l-.31.37c-.14.18-.27.34-.37.49a.77.77,0,0,0-.15.3Zm2.56,31,1.27-3.45-.07-.3a13.37,13.37,0,0,1,.15-2,4.12,4.12,0,0,0-1.88,3.08,2.6,2.6,0,0,0,.15.82A9,9,0,0,1,409.57,228.41Zm7.87-23q1.13-2.17,4.13-9.08l2.48-5.55a2.92,2.92,0,0,0-.68-1.57q-1.28,3-3.19,8.06C418.91,200.69,418,203.4,417.44,205.45Z" transform="translate(0 -1.39)"/><path class="cls-1" d="M458.41,263h-.23c-.2,0-.3-.08-.3-.23a40.67,40.67,0,0,0,2.7-10.65l.83-4.8a1.65,1.65,0,0,0-1.5-.83,25.57,25.57,0,0,0-3.83.45,1.4,1.4,0,0,1-.37-.9l.07-.45.6-1.2a4.9,4.9,0,0,0,1.13-2,.64.64,0,0,0-.15-.45,3.25,3.25,0,0,1-1.43-2.32,5.54,5.54,0,0,1,1.2-3,5.5,5.5,0,0,0,1.2-2.93,1.33,1.33,0,0,1,.83-1.24,8.31,8.31,0,0,1,1.8-.63c1-.2,1.42-.43,1.42-.68a.59.59,0,0,0-.22-.37,2.5,2.5,0,0,1-1-1.73v-.52a3.44,3.44,0,0,1,.45-1.36l.08-.22c.75,0,1.12.2,1.12.6v.75q0,.38.6.6a28.26,28.26,0,0,0,3.34-5.48q2.07-4,3.75-8.32a24.32,24.32,0,0,0,1.84-6.38l-1,1.2a21.63,21.63,0,0,0-2.18,2.85,4.07,4.07,0,0,0-.52,2,4.16,4.16,0,0,0,.18,1.2,2.12,2.12,0,0,0,.38.79c.12.12.19.21.19.26s-.32.21-.94.34a2.09,2.09,0,0,0-1.31.67,4,4,0,0,0-.6,1.09l-.23.6a9.14,9.14,0,0,0-.75,1.58,10.62,10.62,0,0,1-2.48,3.82,39.85,39.85,0,0,1,2.14-7.12q2.07-5.78,4.92-13.06,6.82-17.47,8.4-19.66h.07a92.87,92.87,0,0,1,5.93-10.05.37.37,0,0,1,.26-.19l.27,0a.26.26,0,0,1,.18.11.34.34,0,0,1,.12.26,61.59,61.59,0,0,0-1.5,7.58l2.25-2.18a14.21,14.21,0,0,0,4.65-6.15,45.9,45.9,0,0,1,3.68-10,.29.29,0,0,1,.3-.15c.34,0,.52.1.52.3a16.92,16.92,0,0,0-.22,2.78,15.25,15.25,0,0,0,.41,3.56,15.6,15.6,0,0,1,.41,3.49,13.62,13.62,0,0,1-.45,3.45,12.4,12.4,0,0,1-2.33,3.68.94.94,0,0,1,.68.52,17.17,17.17,0,0,1,.6,4.58,36,36,0,0,1-.37,4.13,22.8,22.8,0,0,1-4.21,9.53q-.82,3.3-1.5,6.6a98,98,0,0,1-3.9,14.55l-.75,1.88-.37,1.12a30.11,30.11,0,0,1-3.08,8.33q-2.25,4.2-4.84,8.18t-4.46,7.58c-.05.1-.23.15-.53.15s-.3-.08-.3-.23a27.14,27.14,0,0,0,.53-3.52.6.6,0,0,1-.38-.08v-.15l.45-1a.45.45,0,0,0,.11-.19,3.78,3.78,0,0,0,0-.79c-.65,1.1-1.25,2.18-1.8,3.23a74.89,74.89,0,0,1-5.4,8.85,88.46,88.46,0,0,0-4.88,7.88A.5.5,0,0,1,458.41,263Z" transform="translate(0 -1.39)"/><path class="cls-1" d="M510.33,251.44a53.31,53.31,0,0,1-6.16-.37q-.37,0-.45-.15l-4.05.37q-1.87.15-3.75.15h-1.28a12,12,0,0,1-4.87-1.05q-.9,0-4.2.3a.13.13,0,0,1-.15-.15h.07a24.59,24.59,0,0,1,2.78-.67,14.7,14.7,0,0,0-2.7-.23l-1.92-.15a8.13,8.13,0,0,1-1.68-.3,1.62,1.62,0,0,1-1.05-.82l-.08-.3q0-.67,2-1.2a4.88,4.88,0,0,1,2-.45c1.5-.15,2.35-.48,2.55-1a1.55,1.55,0,0,0-1-1.35q-2-1.12-1.95-2.1c0-.05,0-.28.11-.68s.69-1,1.84-1.8a8.42,8.42,0,0,0,2.1-2.55l.83-1.2a10.4,10.4,0,0,1,1-1l.08-.3a.25.25,0,0,0-.11-.22q-.12-.08-.12-.15-1.65,2.4-3.22,4.87a.3.3,0,0,1-.3.15c-.35,0-.53-.1-.53-.3a22.28,22.28,0,0,1,2.55-6.75,1,1,0,0,1-.71-.26.76.76,0,0,1-.26-.49l.07-.22q.83-2.85,1.95-5.78c-.95,0-1.42-.38-1.42-1a2.18,2.18,0,0,1,.45-1,2.36,2.36,0,0,0,.3-.75,33.26,33.26,0,0,1,6.3-10.43q.6-1.5,1.2-2.7a13.51,13.51,0,0,1,2.78-6.68,14.85,14.85,0,0,0,2.7-5.1,32.42,32.42,0,0,0,1.05-5.33,25,25,0,0,1,2.17-8,28.25,28.25,0,0,0,1.43-3.6q1.35-3.37,2.1-5.62a9.8,9.8,0,0,0,1.58.15,4.6,4.6,0,0,0,3-1.13,7.72,7.72,0,0,1,1.31-.79,4.37,4.37,0,0,1,1.72-.37,2.63,2.63,0,0,0,1.5-.41,3.42,3.42,0,0,0,.79-.83,3.24,3.24,0,0,1,.83-.82,8.63,8.63,0,0,1,5-1.73,9.39,9.39,0,0,1,4.88,1.5,6.15,6.15,0,0,0,2.78.67l1.05-.07q5.85-.68,6.6-.9a33,33,0,0,1,3.83-.38q3.83-.22,7.42-.22c1.3,0,2.58,0,3.83.07,1.5.06,3.78.08,6.83.08a5.49,5.49,0,0,1,1.69.26,2.17,2.17,0,0,1,1.23,1.24l-4.65-.08-4.65.08q3.6.53,7.13,1.13,4.88.82,9.6,1.35c.55,0,1.08,0,1.58-.08l.15.08v.07l-.15.08.67.07c.4,0,.93.09,1.58.11s1.32,0,2,0l1.88.08v.07a.07.07,0,0,1-.08.08q-6.45.6-15.38.6a.84.84,0,0,0-.37.67,1.29,1.29,0,0,0,.37.75,2.17,2.17,0,0,0,1.65.45l2.18-.15,12.53-.45,5-.22a12.32,12.32,0,0,1-4.54,2,30.21,30.21,0,0,1-4.39.48l-.53.08a9.09,9.09,0,0,0-2.74.3,1.28,1.28,0,0,0-.86,1.35v.22c0,.4-.27.68-.82.83a10.94,10.94,0,0,1-2.93.37l-7,1q-3.75.6-6.87.86c-2.07.18-5.29.29-9.64.34a5.88,5.88,0,0,1-1.8-.15.77.77,0,0,1-.45-.08l-2,.08a8.68,8.68,0,0,0-4,.94,3.57,3.57,0,0,0-1.65,2.21l-1.28,3.75a62,62,0,0,0-2.4,8,1.37,1.37,0,0,0,.68,1.24c.45.27,1.85.41,4.2.41h2.47l2.33.15a1.27,1.27,0,0,1,.41.23,3,3,0,0,0,.49.3,12.67,12.67,0,0,0,2.18.45,86.21,86.21,0,0,0,9.83.67l4,.08a8.53,8.53,0,0,1-4.8,1.2,8.54,8.54,0,0,0-4,.82,29.39,29.39,0,0,0,8.18,1.13c.75,0,1.53,0,2.33-.08s1.6-.07,2.4-.07a27.79,27.79,0,0,1,7.88,1.12,21.35,21.35,0,0,0-3-.22,15.84,15.84,0,0,0-7.8,2,8,8,0,0,1-3.75.67,59.29,59.29,0,0,0-5.93,1.2,41.83,41.83,0,0,1-11.1,1.5,19.26,19.26,0,0,1-3.45-.3c-.65-.15-1.85-.32-3.6-.52a73.36,73.36,0,0,1-9.23,1.12c-1.8.15-3,.59-3.64,1.32a5.45,5.45,0,0,0-1.24,2.36A107,107,0,0,1,513,226.31q6-8.77,7.27-10.8l.15-.08a.22.22,0,0,0,.15.08s.08,0,.08.07l-.08.08a144.48,144.48,0,0,1-6.45,16.5l-2.77,6.08c2.5-.25,4.35-.38,5.55-.38q1.2,0,4.35-.15,4.28-.3,8.63-.37a9.06,9.06,0,0,1,3.82-.9,22.72,22.72,0,0,1,5.48.82c1,.2,2,.38,3.08.53,0,.05.22.07.52.07a11.45,11.45,0,0,0,1.88.15c.1,0,.22.08.37.23l4.2.82.15.23a56.65,56.65,0,0,1-6.45.22,26.2,26.2,0,0,0-3.86.72,1.79,1.79,0,0,0-1.32,1.46c2,.2,4,.3,6,.3a60.13,60.13,0,0,0,9.9-.83q3.38-.45,6.9-.75a8.87,8.87,0,0,1-5.77,2.4c-.76.11-1.48.23-2.18.38a22.11,22.11,0,0,1-3.56.64,25.36,25.36,0,0,0-3.64.6,5.55,5.55,0,0,0-2.85,1.61,4.46,4.46,0,0,1-2.25.3l-1-.07a6,6,0,0,0-1,.07,22.09,22.09,0,0,1-2.62.3,25,25,0,0,0-7.28,1.35q6-.37,11.93-1.27h.23c0,.15-.06.22-.15.22a97.73,97.73,0,0,1-20.71,3.68l-4.28.37A48.21,48.21,0,0,1,510.33,251.44Zm-12.91-36.16a42.5,42.5,0,0,0,4.35-7.65l1.65-3.38a1.58,1.58,0,0,0,.19-.22.59.59,0,0,0,.11-.38.2.2,0,0,1-.07-.11,1.3,1.3,0,0,0,0-.23,1.73,1.73,0,0,1,0-.41,5.91,5.91,0,0,1,.75-2.1,5.53,5.53,0,0,0,.83-2.93l-.83.75-1.42,2.86a2.43,2.43,0,0,0,.45,1.5l.3.52c0,.15-.18.23-.53.23a2.28,2.28,0,0,0-.82.11c-.2.07-.4.14-.6.19q-2,4.8-3.75,9.6Zm29-20.26q1.57-2.47,3.07-5l1.73-2.78.45-1.95a12.88,12.88,0,0,0-3.08,4.09A26.53,26.53,0,0,0,526.46,195Zm.07,5.25a21.21,21.21,0,0,0,2.85-5.77l-2.92,5.7Z" transform="translate(0 -1.39)"/><path class="cls-1" d="M554.29,266.15a21.63,21.63,0,0,1,.3-13.28,6.31,6.31,0,0,0,.15-1.5,13.46,13.46,0,0,1-2.1,2.47h-.15a1.06,1.06,0,0,1-.45-.07,3.65,3.65,0,0,1-1.5-2.78,7.15,7.15,0,0,1,1.8-4.2,28.13,28.13,0,0,0,1.8-2.55,41.61,41.61,0,0,1,2.78-9.27q2-4.53,4.27-9,3.45-6.6,10.06-22.13,1.88-4.42,3.82-8.78a10.28,10.28,0,0,1,3.6-4.73,5,5,0,0,1-.56,2.4,18.53,18.53,0,0,1-1.31,2.1A9.39,9.39,0,0,0,576,196a9.8,9.8,0,0,0,1.58.15,5.68,5.68,0,0,0,1.61-.26,1.8,1.8,0,0,0,1.16-.87,8.07,8.07,0,0,1,3.08-3.34,35.39,35.39,0,0,1,4.5-2.36c1.05-.45,2.05-.92,3-1.42.55.3.85.62.9,1a5.74,5.74,0,0,1-.07,1,6.18,6.18,0,0,0-.08,1.13c0,.2.25.42.75.67a4.35,4.35,0,0,0,2.48-2.1,4.33,4.33,0,0,1,2.7-2.1c.3.1.48.24.53.41a2.12,2.12,0,0,1,.07.57V189a11.61,11.61,0,0,1,1.65,4.2,4.12,4.12,0,0,1-.34,1.47,16.28,16.28,0,0,1-1.68,2.81q-2.79,4.13-5.33,8.63l-.38.67a3.54,3.54,0,0,0-.9,2.18,2.69,2.69,0,0,0,.45,1.35,43.2,43.2,0,0,0,8.48-1.05l2.78-1.05a38.1,38.1,0,0,0,8.47-4.13q6.32-4.8,7.06-11.4a8.27,8.27,0,0,0-1.28-2.78,21.59,21.59,0,0,0-4.5-5.18,15.78,15.78,0,0,0-7-3.07,2.92,2.92,0,0,0-.82-.08v-.07a25.45,25.45,0,0,1,4.72.37,23.67,23.67,0,0,1,11.26,3.61,1.8,1.8,0,0,0,.37-1.06,2.73,2.73,0,0,0-.11-.67c-.07-.3-.59-.65-1.54-1.05a34.75,34.75,0,0,0-11.25-3.15c-1-.1-2-.15-2.93-.15a29,29,0,0,0-3.6.22c-.55.1-1.12.18-1.72.23a23,23,0,0,0-7.81,1.87,3.73,3.73,0,0,1-1.65.45,4.83,4.83,0,0,1-2.36-.82,5.36,5.36,0,0,0-2.74-.83,8.45,8.45,0,0,0-1.5.15,26.33,26.33,0,0,1-4,.6q-3.15.53-6,1.13-5.18,1.13-10.36,2.1-6.45,1.2-12.75,2.7a.28.28,0,0,1-.15,0,.12.12,0,0,1-.08-.11s0-.07.08-.07q4.72-2,9.9-4.58,4.5-2.25,9.31-4.43a4.86,4.86,0,0,1,3-2.29,28.42,28.42,0,0,1,4.69-.93l1.5-.23a60.2,60.2,0,0,1,6.46-1.65,15.91,15.91,0,0,0,3.3-.9,1.6,1.6,0,0,0-1.43-.68,2.2,2.2,0,0,0-.52.08,2.18,2.18,0,0,1-.42.08c-.07,0-1.56.3-4.46.9v-.15l3-1.05-.15-.08q0-.37.6-.6a6.59,6.59,0,0,1,1.73-.3l1.12-.23a70.16,70.16,0,0,1,10.28-2.7,31.39,31.39,0,0,1,5.7-.52,29.15,29.15,0,0,1,4.65.37,44.69,44.69,0,0,1,19.89,5,19.07,19.07,0,0,1,6.56,5.06,40.63,40.63,0,0,1,4.09,6.19,6.29,6.29,0,0,1,.68,1.58l.22.6a9.69,9.69,0,0,0,.15-1.73,12.18,12.18,0,0,0-1-4.5,12.41,12.41,0,0,0-4.36-4.88v-.19s0-.06.08-.11h.07l.15.08a18.21,18.21,0,0,1,7.13,7.05,4,4,0,0,1,.23-.83,4.8,4.8,0,0,1,1.8,3.3,3.15,3.15,0,0,1-.12.87,6.21,6.21,0,0,0-.15.75,1.35,1.35,0,0,1-.11.48,20,20,0,0,1,.38,3.91,25.5,25.5,0,0,1-4.58,14.1,17,17,0,0,1-9.53,7.2h-.37a1.78,1.78,0,0,1-1.5-.67A57.14,57.14,0,0,1,616.79,218l-.08.08A42.49,42.49,0,0,0,628.79,214l.15-.08a.54.54,0,0,1,.19,0,.17.17,0,0,1,.11.18l-.07.15a109.85,109.85,0,0,1-18.08,8.86q2.92,2.33,3.45,4.27a6.76,6.76,0,0,1,.22,1.77,5.58,5.58,0,0,0,.15,1.46q.52,1.13,5.1,2.48a2.89,2.89,0,0,1,1.65.82q2.7,2.7,5.41,5.7,2.4,2.7,2.4,3.83c0,.55-.53.82-1.58.82h-.45a7.68,7.68,0,0,0,.71,2.67,4.11,4.11,0,0,0,2.18,1.5q1.68.63,5.51,1.61a112.32,112.32,0,0,1-20-3.37q-1.2-.45-4.88-4.06a23.87,23.87,0,0,0-3.53-3.15l.6.83a62.12,62.12,0,0,0,4.81,5.55.07.07,0,0,1,.07.08V246a.22.22,0,0,1-.15.08h-.15l-3-1.73a30.09,30.09,0,0,1-7.8-5.85l-.68-.75a1.69,1.69,0,0,1-.75-.3,18.1,18.1,0,0,1-2.7-3.15,3.28,3.28,0,0,1-.52-1.8,4.94,4.94,0,0,0-.15-1.43,1.56,1.56,0,0,0-.87-.79,7.71,7.71,0,0,0-2.29-.49,1.19,1.19,0,0,1-.93-.48,4.76,4.76,0,0,1-.64-.94q-2-4.28-8.48-4.28a3,3,0,0,1-.82-.07h-.15c0-.05,0-.08,0-.08l.3,0,3.12-.64,1.72-.38a2.43,2.43,0,0,0-2.25-1.8,4.3,4.3,0,0,0-1.95.6,4.65,4.65,0,0,0-1.35,1.88,1.19,1.19,0,0,1-.19.45,3,3,0,0,1-.33.37,38.18,38.18,0,0,0-8.41,16.51q-1.8,6.83-3.9,14.33a2.34,2.34,0,0,1-.45-1.28,3.76,3.76,0,0,1,.34-1.42,4.11,4.11,0,0,0,.34-1.5c0-.45-.43-.9-1.13-1.35a52.49,52.49,0,0,1-5.78,5.77,68.13,68.13,0,0,0-5.17,5A16.85,16.85,0,0,0,554.29,266.15Zm53.12-48a10.27,10.27,0,0,0,4.65-.94,14.56,14.56,0,0,0,3.75-2.81q-5.92,2.1-10.13,3.68Z" transform="translate(0 -1.39)"/><path class="cls-1" d="M634.42,261.65a.67.67,0,0,1-.3-.08q-.15-.07-.15-.15v-.07a39.36,39.36,0,0,0,2.62-10.21,46,46,0,0,1,.83-4.57,1.85,1.85,0,0,0-1.58-.83,24.07,24.07,0,0,0-3.67.45,1.42,1.42,0,0,1-.38-.9,2.38,2.38,0,0,1,.53-1.27l.52-.83a4.68,4.68,0,0,0,.75-1.5.54.54,0,0,0-.15-.38,3.28,3.28,0,0,1-1.35-2.32c0-.1,0-.38.11-.83a5.09,5.09,0,0,1,1-1.87c.3-.5.56-1,.79-1.43a3.29,3.29,0,0,0,.33-1.46,1.22,1.22,0,0,1,.83-1.16,9,9,0,0,1,1.65-.57,4.76,4.76,0,0,0,1.16-.37c.23-.13.34-.24.34-.34s-.08-.2-.23-.3a2.75,2.75,0,0,1-1-1.8,3.88,3.88,0,0,1,.45-1.73.29.29,0,0,0,.07-.22c.65.1,1,.3,1.13.6v.67a.58.58,0,0,0,.22.53c.15-1.35.3-2.37.45-3.08a1.63,1.63,0,0,1,.34-.75,2.13,2.13,0,0,0,.34-.33,4,4,0,0,0,.34-.57c.12-.25.29-.62.48-1.12l.08-.38a22.69,22.69,0,0,1,2.78-7.35q2.55-6.9,4.12-11.93a47.75,47.75,0,0,1,2.78-7.65,56.12,56.12,0,0,1,2.1-5.85A33.81,33.81,0,0,1,659.55,179V179l.53-.83-.53-2.4c0-.2.13-.3.38-.3s.4.08.45.23a4,4,0,0,0,.22.52,4.26,4.26,0,0,1,.23.53,4.4,4.4,0,0,1,.71-1.05,1.48,1.48,0,0,1,1.16-.45,1.27,1.27,0,0,1,1,.37l.9,1.58,2.33-2.7a45.31,45.31,0,0,0,3.6-4.58.32.32,0,0,1,.23-.08c.19,0,.3.08.3.23v.07a18.68,18.68,0,0,0-.9,5.78l.07,3.15,1-2.55.22-.15h.23q.15.07.15.15a26.63,26.63,0,0,1,.82,4.35,2.77,2.77,0,0,1,1.35,1.5q.9,2.41,1.58,4.81a63.2,63.2,0,0,0,2.32,6.75l.23.45a3,3,0,0,1,.75,1.42,2.64,2.64,0,0,0,1.42,1.13,9,9,0,0,0,1.92.41,6.2,6.2,0,0,1,1.76.45,1.31,1.31,0,0,1,.75,1.31,2.35,2.35,0,0,1-.83,1.58,3.76,3.76,0,0,1,1.06,1.88l.07.22-.67.08a1.17,1.17,0,0,1-.49-.12.93.93,0,0,1-.45-.41,1.93,1.93,0,0,0-.45-.49,1.28,1.28,0,0,0-.72-.18,25.87,25.87,0,0,0,1.05,6,77.08,77.08,0,0,0,2.63,8.06,22.61,22.61,0,0,0,2.85,5.67v-1.28a14.63,14.63,0,0,0-.41-3.75c-.28-1-1.24-1.92-2.89-2.78v-.14h-.07c.8-.41,1.22-.83,1.27-1.28a26.59,26.59,0,0,0-.9-3.38,7.07,7.07,0,0,1-.67-3.07l.07-.9a22.07,22.07,0,0,1,2.51,4.72q1.62,3.67,4.47,11.63c.45-.15.91-.28,1.39-.41a3.63,3.63,0,0,0,1-.38q.3-.18.3-.33a.74.74,0,0,0-.15-.38,3.19,3.19,0,0,1-.83-1.87v-.6a5.67,5.67,0,0,1,.68-1.73c.7.1,1,.33,1,.68l-.08.52v.6c.05.15.23.3.53.45,0-.05,0-.07.07-.07l1.28-5.71a12,12,0,0,1-1.35,1.58,41.12,41.12,0,0,1,2.4-7,25.23,25.23,0,0,1,3.45-8.55q3.45-8.7,4.77-12.68a18.9,18.9,0,0,1,2.06-4.88q3-5.47,6.53-10.65a.93.93,0,0,1,.37-.23c.3,0,.45.13.45.38a61.46,61.46,0,0,0-2,8.18l2.32-2.25a16.6,16.6,0,0,0,5-6.53,56.81,56.81,0,0,1,4.35-10.65.49.49,0,0,1,.3-.23.53.53,0,0,1,.3.11c.1.08.15.14.15.19v.08a20.3,20.3,0,0,0-.45,4.27,19,19,0,0,0,.19,2.59,17.66,17.66,0,0,1,.19,2.59,16.29,16.29,0,0,1-.75,4.88,15.69,15.69,0,0,1-2.48,3.9c.55.25.83,1.62.83,4.12a31.75,31.75,0,0,1-.6,5.48,27.18,27.18,0,0,1-4.88,10.58l-1.42,5.25a75.94,75.94,0,0,0,5.4-10.88.72.72,0,0,1,.52-.15.25.25,0,0,1,.15.23l.15,1.65q.3,3.22.3,4.95a8.72,8.72,0,0,1-.9,3.49A54.61,54.61,0,0,1,720,206.5l-.6,1.05a121.2,121.2,0,0,0-5.86,12.16l-.52,1a7.7,7.7,0,0,1-.53,1.12,30.77,30.77,0,0,1-1.83,8.52,90,90,0,0,1-3.57,8.29,81.14,81.14,0,0,0-4.2,10.2q-.08.3-.6.3c-.45,0-.67-.15-.67-.45l.07-3c0-1.05,0-2.07-.07-3.08q-2.48,5.26-5.33,10.43a3.75,3.75,0,0,0,.22.64,3.34,3.34,0,0,1,.23.79v.07c0,.15-.15.23-.45.23a.38.38,0,0,1-.34-.26.6.6,0,0,0-.26-.34,6.34,6.34,0,0,1-.38.67.58.58,0,0,1-.52.23.3.3,0,0,1-.3-.15A20.85,20.85,0,0,1,692,250l-.22-.23a8.46,8.46,0,0,0-.64,1c-.18.32-.36.63-.56.93l.07.53v1c0,.45-.3.68-.9.68l-.45-.08-.11.23-.11.19c0,.07-.2.11-.45.11a.5.5,0,0,1-.27-.08.25.25,0,0,1-.11-.22,5.53,5.53,0,0,0,.45-1,59.62,59.62,0,0,0-2.55-7.12,75.43,75.43,0,0,1-2.85-8q-6.9-6.9-7.58-14.93a15.43,15.43,0,0,0-1.95-3,5.28,5.28,0,0,0-1.35-1.08c-.9-.55-1.83-2-2.77-4.43l-1.13-2.85a27.57,27.57,0,0,1-2.93-7l-.6.83q-1.2,4.88-2.29,8.21t-3,8.07l-1.12,2.92a27.31,27.31,0,0,1-2.93,8q-2.17,4-4.69,7.84t-4.39,7.28a.87.87,0,0,1-.6.15l-.15-.22c.2-1.1.38-2.23.53-3.38h-.15c-.2,0-.3-.08-.3-.22a6.08,6.08,0,0,0,.52-1l.08-.08.07-.82a28.77,28.77,0,0,0-1.8,3.08,65.76,65.76,0,0,1-5.25,8.47,77.17,77.17,0,0,0-4.73,7.66A.5.5,0,0,1,634.42,261.65Z" transform="translate(0 -1.39)"/><path class="cls-1" d="M737.2,252.94l-3.22-.07a8.17,8.17,0,0,1-4.8-1.65l1.35-.08a15.16,15.16,0,0,1,2.4.19,11.87,11.87,0,0,0,2,.19,7.32,7.32,0,0,0,3.3-.68,4.26,4.26,0,0,0-2-1.12,17.31,17.31,0,0,0-2.32-.45l-1.5-.23-.83-.15a30.5,30.5,0,0,1-8.33-2.4l-.22-.15c-1.35-.55-2-1.05-2-1.5l.08-1.5a14.84,14.84,0,0,0-1.32-6.11,14.88,14.88,0,0,1-1.31-6c0-.6,0-1.18.08-1.73l1.12-5,.68-3.15a6.36,6.36,0,0,0,.37-1.43l-.07-.45a24.16,24.16,0,0,1-1-5,7.39,7.39,0,0,1,.11-1.17,10.45,10.45,0,0,1,.72-2l.07-.15q1.95-5,3.68-9.9a1.63,1.63,0,0,0,.22-.52,9.7,9.7,0,0,1,1.05-2.18,38.58,38.58,0,0,1,4.69-7.69c1.93-2.48,3.94-4.86,6-7.17.8-.85,1.58-1.72,2.33-2.62h.07v.07a32.86,32.86,0,0,0-4.8,11.26l.15-.38a42.64,42.64,0,0,1,5.63-8.59,28.43,28.43,0,0,1,8.78-6.64,27.87,27.87,0,0,1,13.5-3.37,34,34,0,0,1,4.95.37,32.42,32.42,0,0,0,4.43.3A43.83,43.83,0,0,1,783,175.52a10.88,10.88,0,0,1,6.6,4.8,8.28,8.28,0,0,0,2,2.17l.3.23a13.21,13.21,0,0,0-5.86-7.47q-4.5-2.88-13-3.56c1.6-.1,3.12-.15,4.57-.15q10,0,15.38,4.43,5.85,4.88,5.85,14.78A50.8,50.8,0,0,1,796,207q1.58-3.22,3.53-6.45a.29.29,0,0,1,.22-.07c.15,0,.23.07.23.22a38.29,38.29,0,0,0-2.25,8.89,41.43,41.43,0,0,1-2.51,9.57,14.84,14.84,0,0,1-7,7.5l-.6.07-.53-.07q-7.27,12-10.42,12l-.75-.07a59.75,59.75,0,0,1-8.18,7.05,25.77,25.77,0,0,1-5,2.85A72.44,72.44,0,0,1,737.2,252.94Zm-6.3-8.7a6.24,6.24,0,0,0-2.4-3.15,20.08,20.08,0,0,0-3.45-2l-.45-.23a10.22,10.22,0,0,0,2.21,3.45A8.26,8.26,0,0,0,730.9,244.24ZM750,241.91a9.77,9.77,0,0,0,1.69-.15c.63-.1,1.34-.2,2.14-.3a22.8,22.8,0,0,0,4.73-.9,4.08,4.08,0,0,0,2.85-2.62,17.66,17.66,0,0,1-7,2.62l-1.5.08q-3.6,0-8.25-3.3l-.15-.15a15.51,15.51,0,0,0,6.75,1.8q6.23,0,11.93-7.13a81.35,81.35,0,0,0,6.52-9.45q4-6.75,7.58-9.83h.08a33.84,33.84,0,0,0,2.25-8,12.81,12.81,0,0,0,.15-2,16.34,16.34,0,0,0-1.28-6.15v-.53a2.49,2.49,0,0,1,.3-.41,3.86,3.86,0,0,0,.53-1.09v-.22a18,18,0,0,0-2-4.2l-.07-.15-.83-1.28q-6-3.6-9.68-3.6a12,12,0,0,0-2.62.3,20.64,20.64,0,0,0-8.63,4.8,10.06,10.06,0,0,1,.3,1.43.88.88,0,0,1-.53.75,19.13,19.13,0,0,0-4.65,5,20,20,0,0,1-4.27,4.84s.07,0,.07,0,0,.07.08.12l-.23-.08.08-.15v-.07a31.65,31.65,0,0,0-4.58,14.7c0,.15-.1.23-.3.23h-.23a.23.23,0,0,1-.22-.15,24.52,24.52,0,0,1-1-7.36,74.5,74.5,0,0,0-2.77,19,4.76,4.76,0,0,0,.52,2.41,25.6,25.6,0,0,1,1.65-5.93c.35-.95.68-1.95,1-3h.15v.07a26.6,26.6,0,0,0-.15,2.78,29.27,29.27,0,0,0,1.57,9.45Q744.71,241.91,750,241.91Zm18.31-10.12a18.4,18.4,0,0,0,1.57-1.8,35.09,35.09,0,0,1,4.06-4.13,1.08,1.08,0,0,0,.45-.83,2,2,0,0,1,.07-.45c0-.2.5-.57,1.35-1.12,1-.7,1.58-1.28,1.58-1.73a1.67,1.67,0,0,0-.6-1.12,4.52,4.52,0,0,0-1.2,1,7.31,7.31,0,0,0-.79,1.2,3.54,3.54,0,0,0-.41,1.28,9.08,9.08,0,0,0-.08.93c0,.2-.07.3-.22.3l-.9-.07A54.13,54.13,0,0,1,768.34,231.79Zm20.41-35.57a3.68,3.68,0,0,0,.3-1.35,4.83,4.83,0,0,0-.9-2.47C788.45,194,788.64,195.22,788.75,196.22Z" transform="translate(0 -1.39)"/></svg>